G04 #@! TF.GenerationSoftware,KiCad,Pcbnew,(6.99.0-2815-gbbc0c61ccb)*
G04 #@! TF.CreationDate,2022-10-20T01:02:43+07:00*
G04 #@! TF.ProjectId,Input_Switch_8X,496e7075-745f-4537-9769-7463685f3858,rev?*
G04 #@! TF.SameCoordinates,Original*
G04 #@! TF.FileFunction,Soldermask,Bot*
G04 #@! TF.FilePolarity,Negative*
%FSLAX46Y46*%
G04 Gerber Fmt 4.6, Leading zero omitted, Abs format (unit mm)*
G04 Created by KiCad (PCBNEW (6.99.0-2815-gbbc0c61ccb)) date 2022-10-20 01:02:43*
%MOMM*%
%LPD*%
G01*
G04 APERTURE LIST*
%ADD10R,1.700000X1.700000*%
%ADD11O,1.700000X1.700000*%
%ADD12C,2.000000*%
%ADD13C,0.800000*%
%ADD14C,6.400000*%
G04 APERTURE END LIST*
D10*
X175724999Y-49249999D03*
D11*
X178264999Y-49249999D03*
D10*
X85724999Y-49249999D03*
D11*
X88264999Y-49249999D03*
D12*
X189750000Y-87700000D03*
X189750000Y-81200000D03*
X194250000Y-87700000D03*
X194250000Y-81200000D03*
D10*
X160724999Y-49249999D03*
D11*
X163264999Y-49249999D03*
D13*
X74600000Y-47900000D03*
X75302944Y-46202944D03*
X75302944Y-49597056D03*
X77000000Y-45500000D03*
D14*
X77000000Y-47900000D03*
D13*
X77000000Y-50300000D03*
X78697056Y-46202944D03*
X78697056Y-49597056D03*
X79400000Y-47900000D03*
D12*
X114750000Y-87950000D03*
X114750000Y-81450000D03*
X119250000Y-87950000D03*
X119250000Y-81450000D03*
X84750000Y-87950000D03*
X84750000Y-81450000D03*
X89250000Y-87950000D03*
X89250000Y-81450000D03*
D10*
X100724999Y-49249999D03*
D11*
X103264999Y-49249999D03*
D10*
X115724999Y-49249999D03*
D11*
X118264999Y-49249999D03*
D12*
X174750000Y-87950000D03*
X174750000Y-81450000D03*
X179250000Y-87950000D03*
X179250000Y-81450000D03*
X129750000Y-87950000D03*
X129750000Y-81450000D03*
X134250000Y-87950000D03*
X134250000Y-81450000D03*
X159750000Y-87950000D03*
X159750000Y-81450000D03*
X164250000Y-87950000D03*
X164250000Y-81450000D03*
D13*
X199600000Y-90000000D03*
X200302944Y-88302944D03*
X200302944Y-91697056D03*
X202000000Y-87600000D03*
D14*
X202000000Y-90000000D03*
D13*
X202000000Y-92400000D03*
X203697056Y-88302944D03*
X203697056Y-91697056D03*
X204400000Y-90000000D03*
D12*
X144750000Y-87950000D03*
X144750000Y-81450000D03*
X149250000Y-87950000D03*
X149250000Y-81450000D03*
D10*
X78274999Y-63274999D03*
D11*
X75734999Y-63274999D03*
X78274999Y-60734999D03*
X75734999Y-60734999D03*
D12*
X99750000Y-87950000D03*
X99750000Y-81450000D03*
X104250000Y-87950000D03*
X104250000Y-81450000D03*
D10*
X145724999Y-49249999D03*
D11*
X148264999Y-49249999D03*
D10*
X130724999Y-49249999D03*
D11*
X133264999Y-49249999D03*
D13*
X74600000Y-90000000D03*
X75302944Y-88302944D03*
X75302944Y-91697056D03*
X77000000Y-87600000D03*
D14*
X77000000Y-90000000D03*
D13*
X77000000Y-92400000D03*
X78697056Y-88302944D03*
X78697056Y-91697056D03*
X79400000Y-90000000D03*
X199600000Y-47900000D03*
X200302944Y-46202944D03*
X200302944Y-49597056D03*
X202000000Y-45500000D03*
D14*
X202000000Y-47900000D03*
D13*
X202000000Y-50300000D03*
X203697056Y-46202944D03*
X203697056Y-49597056D03*
X204400000Y-47900000D03*
D10*
X78274999Y-76974999D03*
D11*
X75734999Y-76974999D03*
X78274999Y-74434999D03*
X75734999Y-74434999D03*
D10*
X190724999Y-49249999D03*
D11*
X193264999Y-49249999D03*
M02*
