G04 #@! TF.GenerationSoftware,KiCad,Pcbnew,(6.99.0-2815-gbbc0c61ccb)*
G04 #@! TF.CreationDate,2022-10-20T01:02:43+07:00*
G04 #@! TF.ProjectId,Input_Switch_8X,496e7075-745f-4537-9769-7463685f3858,rev?*
G04 #@! TF.SameCoordinates,Original*
G04 #@! TF.FileFunction,Soldermask,Top*
G04 #@! TF.FilePolarity,Negative*
%FSLAX46Y46*%
G04 Gerber Fmt 4.6, Leading zero omitted, Abs format (unit mm)*
G04 Created by KiCad (PCBNEW (6.99.0-2815-gbbc0c61ccb)) date 2022-10-20 01:02:43*
%MOMM*%
%LPD*%
G01*
G04 APERTURE LIST*
G04 Aperture macros list*
%AMRoundRect*
0 Rectangle with rounded corners*
0 $1 Rounding radius*
0 $2 $3 $4 $5 $6 $7 $8 $9 X,Y pos of 4 corners*
0 Add a 4 corners polygon primitive as box body*
4,1,4,$2,$3,$4,$5,$6,$7,$8,$9,$2,$3,0*
0 Add four circle primitives for the rounded corners*
1,1,$1+$1,$2,$3*
1,1,$1+$1,$4,$5*
1,1,$1+$1,$6,$7*
1,1,$1+$1,$8,$9*
0 Add four rect primitives between the rounded corners*
20,1,$1+$1,$2,$3,$4,$5,0*
20,1,$1+$1,$4,$5,$6,$7,0*
20,1,$1+$1,$6,$7,$8,$9,0*
20,1,$1+$1,$8,$9,$2,$3,0*%
G04 Aperture macros list end*
%ADD10R,1.700000X1.700000*%
%ADD11O,1.700000X1.700000*%
%ADD12RoundRect,0.150000X-0.587500X-0.150000X0.587500X-0.150000X0.587500X0.150000X-0.587500X0.150000X0*%
%ADD13RoundRect,0.200000X0.275000X-0.200000X0.275000X0.200000X-0.275000X0.200000X-0.275000X-0.200000X0*%
%ADD14RoundRect,0.218750X0.218750X0.256250X-0.218750X0.256250X-0.218750X-0.256250X0.218750X-0.256250X0*%
%ADD15C,2.000000*%
%ADD16C,0.800000*%
%ADD17C,6.400000*%
%ADD18R,0.900000X1.200000*%
G04 APERTURE END LIST*
D10*
X175724999Y-49249999D03*
D11*
X178264999Y-49249999D03*
D12*
X161062500Y-58750000D03*
X161062500Y-60650000D03*
X162937500Y-59700000D03*
D13*
X194800000Y-58875000D03*
X194800000Y-60525000D03*
D12*
X176062500Y-58750000D03*
X176062500Y-60650000D03*
X177937500Y-59700000D03*
X86062500Y-55150000D03*
X86062500Y-57050000D03*
X87937500Y-56100000D03*
D13*
X114200000Y-58875000D03*
X114200000Y-60525000D03*
X104800000Y-58875000D03*
X104800000Y-60525000D03*
D10*
X85724999Y-49249999D03*
D11*
X88264999Y-49249999D03*
D12*
X146062500Y-55150000D03*
X146062500Y-57050000D03*
X147937500Y-56100000D03*
D14*
X102767500Y-52800000D03*
X101192500Y-52800000D03*
D13*
X89800000Y-55275000D03*
X89800000Y-56925000D03*
X129200000Y-58875000D03*
X129200000Y-60525000D03*
D15*
X189750000Y-87700000D03*
X189750000Y-81200000D03*
X194250000Y-87700000D03*
X194250000Y-81200000D03*
D10*
X160724999Y-49249999D03*
D11*
X163264999Y-49249999D03*
D12*
X176062500Y-55150000D03*
X176062500Y-57050000D03*
X177937500Y-56100000D03*
D13*
X159200000Y-58875000D03*
X159200000Y-60525000D03*
D16*
X74600000Y-47900000D03*
X75302944Y-46202944D03*
X75302944Y-49597056D03*
X77000000Y-45500000D03*
D17*
X77000000Y-47900000D03*
D16*
X77000000Y-50300000D03*
X78697056Y-46202944D03*
X78697056Y-49597056D03*
X79400000Y-47900000D03*
D13*
X149800000Y-58875000D03*
X149800000Y-60525000D03*
X194800000Y-55275000D03*
X194800000Y-56925000D03*
D15*
X114750000Y-87950000D03*
X114750000Y-81450000D03*
X119250000Y-87950000D03*
X119250000Y-81450000D03*
D13*
X104800000Y-55275000D03*
X104800000Y-56925000D03*
X119800000Y-55275000D03*
X119800000Y-56925000D03*
D12*
X191062500Y-58750000D03*
X191062500Y-60650000D03*
X192937500Y-59700000D03*
D13*
X179800000Y-55275000D03*
X179800000Y-56925000D03*
D15*
X84750000Y-87950000D03*
X84750000Y-81450000D03*
X89250000Y-87950000D03*
X89250000Y-81450000D03*
D18*
X103649999Y-62799999D03*
X100349999Y-62799999D03*
D13*
X164800000Y-55275000D03*
X164800000Y-56925000D03*
D12*
X191062500Y-55150000D03*
X191062500Y-57050000D03*
X192937500Y-56100000D03*
D10*
X100724999Y-49249999D03*
D11*
X103264999Y-49249999D03*
D14*
X117767500Y-52800000D03*
X116192500Y-52800000D03*
D12*
X101062500Y-55150000D03*
X101062500Y-57050000D03*
X102937500Y-56100000D03*
D10*
X115724999Y-49249999D03*
D11*
X118264999Y-49249999D03*
D12*
X161062500Y-55150000D03*
X161062500Y-57050000D03*
X162937500Y-56100000D03*
D15*
X174750000Y-87950000D03*
X174750000Y-81450000D03*
X179250000Y-87950000D03*
X179250000Y-81450000D03*
D18*
X88649999Y-62799999D03*
X85349999Y-62799999D03*
D12*
X101062500Y-58750000D03*
X101062500Y-60650000D03*
X102937500Y-59700000D03*
D18*
X118649999Y-62799999D03*
X115349999Y-62799999D03*
D15*
X129750000Y-87950000D03*
X129750000Y-81450000D03*
X134250000Y-87950000D03*
X134250000Y-81450000D03*
X159750000Y-87950000D03*
X159750000Y-81450000D03*
X164250000Y-87950000D03*
X164250000Y-81450000D03*
D12*
X116062500Y-55150000D03*
X116062500Y-57050000D03*
X117937500Y-56100000D03*
D14*
X177767500Y-52800000D03*
X176192500Y-52800000D03*
D18*
X133728570Y-62799999D03*
X130428570Y-62799999D03*
D16*
X199600000Y-90000000D03*
X200302944Y-88302944D03*
X200302944Y-91697056D03*
X202000000Y-87600000D03*
D17*
X202000000Y-90000000D03*
D16*
X202000000Y-92400000D03*
X203697056Y-88302944D03*
X203697056Y-91697056D03*
X204400000Y-90000000D03*
D13*
X174200000Y-58875000D03*
X174200000Y-60525000D03*
D12*
X131062500Y-55150000D03*
X131062500Y-57050000D03*
X132937500Y-56100000D03*
D13*
X149800000Y-55275000D03*
X149800000Y-56925000D03*
X164800000Y-58875000D03*
X164800000Y-60525000D03*
D15*
X144750000Y-87950000D03*
X144750000Y-81450000D03*
X149250000Y-87950000D03*
X149250000Y-81450000D03*
D13*
X179800000Y-58875000D03*
X179800000Y-60525000D03*
D14*
X147767500Y-52800000D03*
X146192500Y-52800000D03*
D18*
X193649999Y-62799999D03*
X190349999Y-62799999D03*
D10*
X78274999Y-63274999D03*
D11*
X75734999Y-63274999D03*
X78274999Y-60734999D03*
X75734999Y-60734999D03*
D13*
X99200000Y-58875000D03*
X99200000Y-60525000D03*
D18*
X178669641Y-62799999D03*
X175369641Y-62799999D03*
X148708927Y-62799999D03*
X145408927Y-62799999D03*
D15*
X99750000Y-87950000D03*
X99750000Y-81450000D03*
X104250000Y-87950000D03*
X104250000Y-81450000D03*
D13*
X134800000Y-58875000D03*
X134800000Y-60525000D03*
D10*
X145724999Y-49249999D03*
D11*
X148264999Y-49249999D03*
D18*
X163689284Y-62799999D03*
X160389284Y-62799999D03*
D13*
X189200000Y-58875000D03*
X189200000Y-60525000D03*
X89800000Y-58875000D03*
X89800000Y-60525000D03*
D12*
X116062500Y-58750000D03*
X116062500Y-60650000D03*
X117937500Y-59700000D03*
D10*
X130724999Y-49249999D03*
D11*
X133264999Y-49249999D03*
D13*
X144200000Y-58875000D03*
X144200000Y-60525000D03*
D12*
X146062500Y-58750000D03*
X146062500Y-60650000D03*
X147937500Y-59700000D03*
D13*
X134800000Y-55275000D03*
X134800000Y-56925000D03*
D14*
X192767500Y-52800000D03*
X191192500Y-52800000D03*
X87767500Y-52800000D03*
X86192500Y-52800000D03*
D13*
X119800000Y-58875000D03*
X119800000Y-60525000D03*
D12*
X131062500Y-58750000D03*
X131062500Y-60650000D03*
X132937500Y-59700000D03*
D14*
X132767500Y-52800000D03*
X131192500Y-52800000D03*
D16*
X74600000Y-90000000D03*
X75302944Y-88302944D03*
X75302944Y-91697056D03*
X77000000Y-87600000D03*
D17*
X77000000Y-90000000D03*
D16*
X77000000Y-92400000D03*
X78697056Y-88302944D03*
X78697056Y-91697056D03*
X79400000Y-90000000D03*
D12*
X86062500Y-58750000D03*
X86062500Y-60650000D03*
X87937500Y-59700000D03*
D13*
X84200000Y-58875000D03*
X84200000Y-60525000D03*
D16*
X199600000Y-47900000D03*
X200302944Y-46202944D03*
X200302944Y-49597056D03*
X202000000Y-45500000D03*
D17*
X202000000Y-47900000D03*
D16*
X202000000Y-50300000D03*
X203697056Y-46202944D03*
X203697056Y-49597056D03*
X204400000Y-47900000D03*
D14*
X162767500Y-52800000D03*
X161192500Y-52800000D03*
D10*
X78274999Y-76974999D03*
D11*
X75734999Y-76974999D03*
X78274999Y-74434999D03*
X75734999Y-74434999D03*
D10*
X190724999Y-49249999D03*
D11*
X193264999Y-49249999D03*
M02*
