M48
; DRILL file {KiCad (6.99.0-2815-gbbc0c61ccb)} date Thu Oct 20 00:59:05 2022
; FORMAT={-:-/ absolute / metric / decimal}
; #@! TF.CreationDate,2022-10-20T00:59:05+07:00
; #@! TF.GenerationSoftware,Kicad,Pcbnew,(6.99.0-2815-gbbc0c61ccb)
; #@! TF.FileFunction,Plated,1,2,PTH
FMAT,2
METRIC
; #@! TA.AperFunction,Plated,PTH,ViaDrill
T1C0.300
; #@! TA.AperFunction,Plated,PTH,ComponentDrill
T2C0.500
; #@! TA.AperFunction,Plated,PTH,ComponentDrill
T3C1.000
; #@! TA.AperFunction,Plated,PTH,ComponentDrill
T4C1.100
; #@! TA.AperFunction,Plated,PTH,ComponentDrill
T5C3.200
%
G90
G05
T1
X89.8Y-57.875
X104.825Y-57.875
X119.8Y-57.875
X134.825Y-57.925
X149.825Y-57.9
X164.8Y-57.9
X179.8Y-57.875
X194.775Y-57.875
T2
X74.6Y-47.9
X74.6Y-90.0
X75.303Y-46.203
X75.303Y-49.597
X75.303Y-88.303
X75.303Y-91.697
X77.0Y-45.5
X77.0Y-50.3
X77.0Y-87.6
X77.0Y-92.4
X78.697Y-46.203
X78.697Y-49.597
X78.697Y-88.303
X78.697Y-91.697
X79.4Y-47.9
X79.4Y-90.0
X199.6Y-47.9
X199.6Y-90.0
X200.303Y-46.203
X200.303Y-49.597
X200.303Y-88.303
X200.303Y-91.697
X202.0Y-45.5
X202.0Y-50.3
X202.0Y-87.6
X202.0Y-92.4
X203.697Y-46.203
X203.697Y-49.597
X203.697Y-88.303
X203.697Y-91.697
X204.4Y-47.9
X204.4Y-90.0
T3
X75.735Y-60.735
X75.735Y-63.275
X75.735Y-74.435
X75.735Y-76.975
X78.275Y-60.735
X78.275Y-63.275
X78.275Y-74.435
X78.275Y-76.975
X85.725Y-49.25
X88.265Y-49.25
X100.725Y-49.25
X103.265Y-49.25
X115.725Y-49.25
X118.265Y-49.25
X130.725Y-49.25
X133.265Y-49.25
X145.725Y-49.25
X148.265Y-49.25
X160.725Y-49.25
X163.265Y-49.25
X175.725Y-49.25
X178.265Y-49.25
X190.725Y-49.25
X193.265Y-49.25
T4
X84.75Y-81.45
X84.75Y-87.95
X89.25Y-81.45
X89.25Y-87.95
X99.75Y-81.45
X99.75Y-87.95
X104.25Y-81.45
X104.25Y-87.95
X114.75Y-81.45
X114.75Y-87.95
X119.25Y-81.45
X119.25Y-87.95
X129.75Y-81.45
X129.75Y-87.95
X134.25Y-81.45
X134.25Y-87.95
X144.75Y-81.45
X144.75Y-87.95
X149.25Y-81.45
X149.25Y-87.95
X159.75Y-81.45
X159.75Y-87.95
X164.25Y-81.45
X164.25Y-87.95
X174.75Y-81.45
X174.75Y-87.95
X179.25Y-81.45
X179.25Y-87.95
X189.75Y-81.2
X189.75Y-87.7
X194.25Y-81.2
X194.25Y-87.7
T5
X77.0Y-47.9
X77.0Y-90.0
X202.0Y-47.9
X202.0Y-90.0
T3
X86.35Y-71.5G85X87.65Y-71.5
G05
X86.35Y-75.95G85X87.65Y-75.95
G05
X101.35Y-71.5G85X102.65Y-71.5
G05
X101.35Y-75.95G85X102.65Y-75.95
G05
X116.35Y-71.5G85X117.65Y-71.5
G05
X116.35Y-75.95G85X117.65Y-75.95
G05
X131.35Y-71.5G85X132.65Y-71.5
G05
X131.35Y-75.95G85X132.65Y-75.95
G05
X146.35Y-71.5G85X147.65Y-71.5
G05
X146.35Y-75.95G85X147.65Y-75.95
G05
X161.35Y-71.5G85X162.65Y-71.5
G05
X161.35Y-75.95G85X162.65Y-75.95
G05
X176.35Y-71.5G85X177.65Y-71.5
G05
X176.35Y-75.95G85X177.65Y-75.95
G05
X191.35Y-71.5G85X192.65Y-71.5
G05
X191.35Y-75.95G85X192.65Y-75.95
G05
T0
M30
