G04 #@! TF.GenerationSoftware,KiCad,Pcbnew,(6.99.0-2815-gbbc0c61ccb)*
G04 #@! TF.CreationDate,2022-10-20T01:02:43+07:00*
G04 #@! TF.ProjectId,Input_Switch_8X,496e7075-745f-4537-9769-7463685f3858,rev?*
G04 #@! TF.SameCoordinates,Original*
G04 #@! TF.FileFunction,Paste,Top*
G04 #@! TF.FilePolarity,Positive*
%FSLAX46Y46*%
G04 Gerber Fmt 4.6, Leading zero omitted, Abs format (unit mm)*
G04 Created by KiCad (PCBNEW (6.99.0-2815-gbbc0c61ccb)) date 2022-10-20 01:02:43*
%MOMM*%
%LPD*%
G01*
G04 APERTURE LIST*
G04 Aperture macros list*
%AMRoundRect*
0 Rectangle with rounded corners*
0 $1 Rounding radius*
0 $2 $3 $4 $5 $6 $7 $8 $9 X,Y pos of 4 corners*
0 Add a 4 corners polygon primitive as box body*
4,1,4,$2,$3,$4,$5,$6,$7,$8,$9,$2,$3,0*
0 Add four circle primitives for the rounded corners*
1,1,$1+$1,$2,$3*
1,1,$1+$1,$4,$5*
1,1,$1+$1,$6,$7*
1,1,$1+$1,$8,$9*
0 Add four rect primitives between the rounded corners*
20,1,$1+$1,$2,$3,$4,$5,0*
20,1,$1+$1,$4,$5,$6,$7,0*
20,1,$1+$1,$6,$7,$8,$9,0*
20,1,$1+$1,$8,$9,$2,$3,0*%
G04 Aperture macros list end*
%ADD10RoundRect,0.150000X-0.587500X-0.150000X0.587500X-0.150000X0.587500X0.150000X-0.587500X0.150000X0*%
%ADD11RoundRect,0.200000X0.275000X-0.200000X0.275000X0.200000X-0.275000X0.200000X-0.275000X-0.200000X0*%
%ADD12RoundRect,0.218750X0.218750X0.256250X-0.218750X0.256250X-0.218750X-0.256250X0.218750X-0.256250X0*%
%ADD13R,0.900000X1.200000*%
G04 APERTURE END LIST*
D10*
X161062500Y-58750000D03*
X161062500Y-60650000D03*
X162937500Y-59700000D03*
D11*
X194800000Y-58875000D03*
X194800000Y-60525000D03*
D10*
X176062500Y-58750000D03*
X176062500Y-60650000D03*
X177937500Y-59700000D03*
X86062500Y-55150000D03*
X86062500Y-57050000D03*
X87937500Y-56100000D03*
D11*
X114200000Y-58875000D03*
X114200000Y-60525000D03*
X104800000Y-58875000D03*
X104800000Y-60525000D03*
D10*
X146062500Y-55150000D03*
X146062500Y-57050000D03*
X147937500Y-56100000D03*
D12*
X102767500Y-52800000D03*
X101192500Y-52800000D03*
D11*
X89800000Y-55275000D03*
X89800000Y-56925000D03*
X129200000Y-58875000D03*
X129200000Y-60525000D03*
D10*
X176062500Y-55150000D03*
X176062500Y-57050000D03*
X177937500Y-56100000D03*
D11*
X159200000Y-58875000D03*
X159200000Y-60525000D03*
X149800000Y-58875000D03*
X149800000Y-60525000D03*
X194800000Y-55275000D03*
X194800000Y-56925000D03*
X104800000Y-55275000D03*
X104800000Y-56925000D03*
X119800000Y-55275000D03*
X119800000Y-56925000D03*
D10*
X191062500Y-58750000D03*
X191062500Y-60650000D03*
X192937500Y-59700000D03*
D11*
X179800000Y-55275000D03*
X179800000Y-56925000D03*
D13*
X103649999Y-62799999D03*
X100349999Y-62799999D03*
D11*
X164800000Y-55275000D03*
X164800000Y-56925000D03*
D10*
X191062500Y-55150000D03*
X191062500Y-57050000D03*
X192937500Y-56100000D03*
D12*
X117767500Y-52800000D03*
X116192500Y-52800000D03*
D10*
X101062500Y-55150000D03*
X101062500Y-57050000D03*
X102937500Y-56100000D03*
X161062500Y-55150000D03*
X161062500Y-57050000D03*
X162937500Y-56100000D03*
D13*
X88649999Y-62799999D03*
X85349999Y-62799999D03*
D10*
X101062500Y-58750000D03*
X101062500Y-60650000D03*
X102937500Y-59700000D03*
D13*
X118649999Y-62799999D03*
X115349999Y-62799999D03*
D10*
X116062500Y-55150000D03*
X116062500Y-57050000D03*
X117937500Y-56100000D03*
D12*
X177767500Y-52800000D03*
X176192500Y-52800000D03*
D13*
X133728570Y-62799999D03*
X130428570Y-62799999D03*
D11*
X174200000Y-58875000D03*
X174200000Y-60525000D03*
D10*
X131062500Y-55150000D03*
X131062500Y-57050000D03*
X132937500Y-56100000D03*
D11*
X149800000Y-55275000D03*
X149800000Y-56925000D03*
X164800000Y-58875000D03*
X164800000Y-60525000D03*
X179800000Y-58875000D03*
X179800000Y-60525000D03*
D12*
X147767500Y-52800000D03*
X146192500Y-52800000D03*
D13*
X193649999Y-62799999D03*
X190349999Y-62799999D03*
D11*
X99200000Y-58875000D03*
X99200000Y-60525000D03*
D13*
X178669641Y-62799999D03*
X175369641Y-62799999D03*
X148708927Y-62799999D03*
X145408927Y-62799999D03*
D11*
X134800000Y-58875000D03*
X134800000Y-60525000D03*
D13*
X163689284Y-62799999D03*
X160389284Y-62799999D03*
D11*
X189200000Y-58875000D03*
X189200000Y-60525000D03*
X89800000Y-58875000D03*
X89800000Y-60525000D03*
D10*
X116062500Y-58750000D03*
X116062500Y-60650000D03*
X117937500Y-59700000D03*
D11*
X144200000Y-58875000D03*
X144200000Y-60525000D03*
D10*
X146062500Y-58750000D03*
X146062500Y-60650000D03*
X147937500Y-59700000D03*
D11*
X134800000Y-55275000D03*
X134800000Y-56925000D03*
D12*
X192767500Y-52800000D03*
X191192500Y-52800000D03*
X87767500Y-52800000D03*
X86192500Y-52800000D03*
D11*
X119800000Y-58875000D03*
X119800000Y-60525000D03*
D10*
X131062500Y-58750000D03*
X131062500Y-60650000D03*
X132937500Y-59700000D03*
D12*
X132767500Y-52800000D03*
X131192500Y-52800000D03*
D10*
X86062500Y-58750000D03*
X86062500Y-60650000D03*
X87937500Y-59700000D03*
D11*
X84200000Y-58875000D03*
X84200000Y-60525000D03*
D12*
X162767500Y-52800000D03*
X161192500Y-52800000D03*
M02*
