%TF.GenerationSoftware,KiCad,Pcbnew,(6.99.0-2815-gbbc0c61ccb)*%
%TF.CreationDate,2022-10-20T00:59:06+07:00*%
%TF.ProjectId,Input_Switch_8X,496e7075-745f-4537-9769-7463685f3858,rev?*%
%TF.SameCoordinates,Original*%
%TF.FileFunction,Drillmap*%
%TF.FilePolarity,Positive*%
%FSLAX45Y45*%
G04 Gerber Fmt 4.5, Leading zero omitted, Abs format (unit mm)*
G04 Created by KiCad (PCBNEW (6.99.0-2815-gbbc0c61ccb)) date 2022-10-20 00:59:06*
%MOMM*%
%LPD*%
G01*
G04 APERTURE LIST*
%ADD10C,0.100000*%
%ADD11C,0.200000*%
%ADD12C,0.030000*%
%ADD13C,0.050000*%
%ADD14C,0.110000*%
%ADD15C,0.320000*%
G04 APERTURE END LIST*
D10*
X7700000Y-4390000D02*
G75*
G03*
X7300000Y-4790000I0J-400000D01*
G01*
X7700000Y-9387157D02*
X20200000Y-9387157D01*
X7300000Y-4790000D02*
X7300000Y-8987157D01*
X7300003Y-8987157D02*
G75*
G03*
X7700000Y-9387157I399997J-3D01*
G01*
X20600000Y-4790000D02*
G75*
G03*
X20200000Y-4390000I-400000J0D01*
G01*
X20200000Y-9387160D02*
G75*
G03*
X20600000Y-8987157I0J400000D01*
G01*
X20200000Y-4390000D02*
X7700000Y-4390000D01*
X20600000Y-8987157D02*
X20600000Y-4790000D01*
D11*
D12*
X8965000Y-5772500D02*
X8995000Y-5802500D01*
X8995000Y-5772500D02*
X8965000Y-5802500D01*
X10467500Y-5772500D02*
X10497500Y-5802500D01*
X10497500Y-5772500D02*
X10467500Y-5802500D01*
X11965000Y-5772500D02*
X11995000Y-5802500D01*
X11995000Y-5772500D02*
X11965000Y-5802500D01*
X13467500Y-5777500D02*
X13497500Y-5807500D01*
X13497500Y-5777500D02*
X13467500Y-5807500D01*
X14967500Y-5775000D02*
X14997500Y-5805000D01*
X14997500Y-5775000D02*
X14967500Y-5805000D01*
X16465000Y-5775000D02*
X16495000Y-5805000D01*
X16495000Y-5775000D02*
X16465000Y-5805000D01*
X17965000Y-5772500D02*
X17995000Y-5802500D01*
X17995000Y-5772500D02*
X17965000Y-5802500D01*
X19462500Y-5772500D02*
X19492500Y-5802500D01*
X19492500Y-5772500D02*
X19462500Y-5802500D01*
D13*
X7485000Y-4790000D02*
G75*
G03*
X7485000Y-4790000I-25000J0D01*
G01*
X7485000Y-9000000D02*
G75*
G03*
X7485000Y-9000000I-25000J0D01*
G01*
X7555294Y-4620294D02*
G75*
G03*
X7555294Y-4620294I-25000J0D01*
G01*
X7555294Y-4959706D02*
G75*
G03*
X7555294Y-4959706I-25000J0D01*
G01*
X7555294Y-8830294D02*
G75*
G03*
X7555294Y-8830294I-25000J0D01*
G01*
X7555294Y-9169706D02*
G75*
G03*
X7555294Y-9169706I-25000J0D01*
G01*
X7725000Y-4550000D02*
G75*
G03*
X7725000Y-4550000I-25000J0D01*
G01*
X7725000Y-5030000D02*
G75*
G03*
X7725000Y-5030000I-25000J0D01*
G01*
X7725000Y-8760000D02*
G75*
G03*
X7725000Y-8760000I-25000J0D01*
G01*
X7725000Y-9240000D02*
G75*
G03*
X7725000Y-9240000I-25000J0D01*
G01*
X7894706Y-4620294D02*
G75*
G03*
X7894706Y-4620294I-25000J0D01*
G01*
X7894706Y-4959706D02*
G75*
G03*
X7894706Y-4959706I-25000J0D01*
G01*
X7894706Y-8830294D02*
G75*
G03*
X7894706Y-8830294I-25000J0D01*
G01*
X7894706Y-9169706D02*
G75*
G03*
X7894706Y-9169706I-25000J0D01*
G01*
X7965000Y-4790000D02*
G75*
G03*
X7965000Y-4790000I-25000J0D01*
G01*
X7965000Y-9000000D02*
G75*
G03*
X7965000Y-9000000I-25000J0D01*
G01*
X19985000Y-4790000D02*
G75*
G03*
X19985000Y-4790000I-25000J0D01*
G01*
X19985000Y-9000000D02*
G75*
G03*
X19985000Y-9000000I-25000J0D01*
G01*
X20055294Y-4620294D02*
G75*
G03*
X20055294Y-4620294I-25000J0D01*
G01*
X20055294Y-4959706D02*
G75*
G03*
X20055294Y-4959706I-25000J0D01*
G01*
X20055294Y-8830294D02*
G75*
G03*
X20055294Y-8830294I-25000J0D01*
G01*
X20055294Y-9169706D02*
G75*
G03*
X20055294Y-9169706I-25000J0D01*
G01*
X20225000Y-4550000D02*
G75*
G03*
X20225000Y-4550000I-25000J0D01*
G01*
X20225000Y-5030000D02*
G75*
G03*
X20225000Y-5030000I-25000J0D01*
G01*
X20225000Y-8760000D02*
G75*
G03*
X20225000Y-8760000I-25000J0D01*
G01*
X20225000Y-9240000D02*
G75*
G03*
X20225000Y-9240000I-25000J0D01*
G01*
X20394706Y-4620294D02*
G75*
G03*
X20394706Y-4620294I-25000J0D01*
G01*
X20394706Y-4959706D02*
G75*
G03*
X20394706Y-4959706I-25000J0D01*
G01*
X20394706Y-8830294D02*
G75*
G03*
X20394706Y-8830294I-25000J0D01*
G01*
X20394706Y-9169706D02*
G75*
G03*
X20394706Y-9169706I-25000J0D01*
G01*
X20465000Y-4790000D02*
G75*
G03*
X20465000Y-4790000I-25000J0D01*
G01*
X20465000Y-9000000D02*
G75*
G03*
X20465000Y-9000000I-25000J0D01*
G01*
D10*
X7573500Y-6023500D02*
X7573500Y-6123500D01*
X7523500Y-6073500D02*
X7623500Y-6073500D01*
X7573500Y-6277500D02*
X7573500Y-6377500D01*
X7523500Y-6327500D02*
X7623500Y-6327500D01*
X7573500Y-7393500D02*
X7573500Y-7493500D01*
X7523500Y-7443500D02*
X7623500Y-7443500D01*
X7573500Y-7647500D02*
X7573500Y-7747500D01*
X7523500Y-7697500D02*
X7623500Y-7697500D01*
X7827500Y-6023500D02*
X7827500Y-6123500D01*
X7777500Y-6073500D02*
X7877500Y-6073500D01*
X7827500Y-6277500D02*
X7827500Y-6377500D01*
X7777500Y-6327500D02*
X7877500Y-6327500D01*
X7827500Y-7393500D02*
X7827500Y-7493500D01*
X7777500Y-7443500D02*
X7877500Y-7443500D01*
X7827500Y-7647500D02*
X7827500Y-7747500D01*
X7777500Y-7697500D02*
X7877500Y-7697500D01*
X8572500Y-4875000D02*
X8572500Y-4975000D01*
X8522500Y-4925000D02*
X8622500Y-4925000D01*
X8700000Y-7100000D02*
X8700000Y-7200000D01*
X8650000Y-7150000D02*
X8750000Y-7150000D01*
D11*
X8635000Y-7200000D02*
X8765000Y-7200000D01*
X8765000Y-7200000D02*
G75*
G03*
X8765000Y-7100000I0J50000D01*
G01*
X8765000Y-7100000D02*
X8635000Y-7100000D01*
X8635000Y-7100000D02*
G75*
G03*
X8635000Y-7200000I0J-50000D01*
G01*
D10*
X8700000Y-7545000D02*
X8700000Y-7645000D01*
X8650000Y-7595000D02*
X8750000Y-7595000D01*
D11*
X8635000Y-7645000D02*
X8765000Y-7645000D01*
X8765000Y-7645000D02*
G75*
G03*
X8765000Y-7545000I0J50000D01*
G01*
X8765000Y-7545000D02*
X8635000Y-7545000D01*
X8635000Y-7545000D02*
G75*
G03*
X8635000Y-7645000I0J-50000D01*
G01*
D10*
X8826500Y-4875000D02*
X8826500Y-4975000D01*
X8776500Y-4925000D02*
X8876500Y-4925000D01*
X10072500Y-4875000D02*
X10072500Y-4975000D01*
X10022500Y-4925000D02*
X10122500Y-4925000D01*
X10200000Y-7100000D02*
X10200000Y-7200000D01*
X10150000Y-7150000D02*
X10250000Y-7150000D01*
D11*
X10135000Y-7200000D02*
X10265000Y-7200000D01*
X10265000Y-7200000D02*
G75*
G03*
X10265000Y-7100000I0J50000D01*
G01*
X10265000Y-7100000D02*
X10135000Y-7100000D01*
X10135000Y-7100000D02*
G75*
G03*
X10135000Y-7200000I0J-50000D01*
G01*
D10*
X10200000Y-7545000D02*
X10200000Y-7645000D01*
X10150000Y-7595000D02*
X10250000Y-7595000D01*
D11*
X10135000Y-7645000D02*
X10265000Y-7645000D01*
X10265000Y-7645000D02*
G75*
G03*
X10265000Y-7545000I0J50000D01*
G01*
X10265000Y-7545000D02*
X10135000Y-7545000D01*
X10135000Y-7545000D02*
G75*
G03*
X10135000Y-7645000I0J-50000D01*
G01*
D10*
X10326500Y-4875000D02*
X10326500Y-4975000D01*
X10276500Y-4925000D02*
X10376500Y-4925000D01*
X11572500Y-4875000D02*
X11572500Y-4975000D01*
X11522500Y-4925000D02*
X11622500Y-4925000D01*
X11700000Y-7100000D02*
X11700000Y-7200000D01*
X11650000Y-7150000D02*
X11750000Y-7150000D01*
D11*
X11635000Y-7200000D02*
X11765000Y-7200000D01*
X11765000Y-7200000D02*
G75*
G03*
X11765000Y-7100000I0J50000D01*
G01*
X11765000Y-7100000D02*
X11635000Y-7100000D01*
X11635000Y-7100000D02*
G75*
G03*
X11635000Y-7200000I0J-50000D01*
G01*
D10*
X11700000Y-7545000D02*
X11700000Y-7645000D01*
X11650000Y-7595000D02*
X11750000Y-7595000D01*
D11*
X11635000Y-7645000D02*
X11765000Y-7645000D01*
X11765000Y-7645000D02*
G75*
G03*
X11765000Y-7545000I0J50000D01*
G01*
X11765000Y-7545000D02*
X11635000Y-7545000D01*
X11635000Y-7545000D02*
G75*
G03*
X11635000Y-7645000I0J-50000D01*
G01*
D10*
X11826500Y-4875000D02*
X11826500Y-4975000D01*
X11776500Y-4925000D02*
X11876500Y-4925000D01*
X13072500Y-4875000D02*
X13072500Y-4975000D01*
X13022500Y-4925000D02*
X13122500Y-4925000D01*
X13200000Y-7100000D02*
X13200000Y-7200000D01*
X13150000Y-7150000D02*
X13250000Y-7150000D01*
D11*
X13135000Y-7200000D02*
X13265000Y-7200000D01*
X13265000Y-7200000D02*
G75*
G03*
X13265000Y-7100000I0J50000D01*
G01*
X13265000Y-7100000D02*
X13135000Y-7100000D01*
X13135000Y-7100000D02*
G75*
G03*
X13135000Y-7200000I0J-50000D01*
G01*
D10*
X13200000Y-7545000D02*
X13200000Y-7645000D01*
X13150000Y-7595000D02*
X13250000Y-7595000D01*
D11*
X13135000Y-7645000D02*
X13265000Y-7645000D01*
X13265000Y-7645000D02*
G75*
G03*
X13265000Y-7545000I0J50000D01*
G01*
X13265000Y-7545000D02*
X13135000Y-7545000D01*
X13135000Y-7545000D02*
G75*
G03*
X13135000Y-7645000I0J-50000D01*
G01*
D10*
X13326500Y-4875000D02*
X13326500Y-4975000D01*
X13276500Y-4925000D02*
X13376500Y-4925000D01*
X14572500Y-4875000D02*
X14572500Y-4975000D01*
X14522500Y-4925000D02*
X14622500Y-4925000D01*
X14700000Y-7100000D02*
X14700000Y-7200000D01*
X14650000Y-7150000D02*
X14750000Y-7150000D01*
D11*
X14635000Y-7200000D02*
X14765000Y-7200000D01*
X14765000Y-7200000D02*
G75*
G03*
X14765000Y-7100000I0J50000D01*
G01*
X14765000Y-7100000D02*
X14635000Y-7100000D01*
X14635000Y-7100000D02*
G75*
G03*
X14635000Y-7200000I0J-50000D01*
G01*
D10*
X14700000Y-7545000D02*
X14700000Y-7645000D01*
X14650000Y-7595000D02*
X14750000Y-7595000D01*
D11*
X14635000Y-7645000D02*
X14765000Y-7645000D01*
X14765000Y-7645000D02*
G75*
G03*
X14765000Y-7545000I0J50000D01*
G01*
X14765000Y-7545000D02*
X14635000Y-7545000D01*
X14635000Y-7545000D02*
G75*
G03*
X14635000Y-7645000I0J-50000D01*
G01*
D10*
X14826500Y-4875000D02*
X14826500Y-4975000D01*
X14776500Y-4925000D02*
X14876500Y-4925000D01*
X16072500Y-4875000D02*
X16072500Y-4975000D01*
X16022500Y-4925000D02*
X16122500Y-4925000D01*
X16200000Y-7100000D02*
X16200000Y-7200000D01*
X16150000Y-7150000D02*
X16250000Y-7150000D01*
D11*
X16135000Y-7200000D02*
X16265000Y-7200000D01*
X16265000Y-7200000D02*
G75*
G03*
X16265000Y-7100000I0J50000D01*
G01*
X16265000Y-7100000D02*
X16135000Y-7100000D01*
X16135000Y-7100000D02*
G75*
G03*
X16135000Y-7200000I0J-50000D01*
G01*
D10*
X16200000Y-7545000D02*
X16200000Y-7645000D01*
X16150000Y-7595000D02*
X16250000Y-7595000D01*
D11*
X16135000Y-7645000D02*
X16265000Y-7645000D01*
X16265000Y-7645000D02*
G75*
G03*
X16265000Y-7545000I0J50000D01*
G01*
X16265000Y-7545000D02*
X16135000Y-7545000D01*
X16135000Y-7545000D02*
G75*
G03*
X16135000Y-7645000I0J-50000D01*
G01*
D10*
X16326500Y-4875000D02*
X16326500Y-4975000D01*
X16276500Y-4925000D02*
X16376500Y-4925000D01*
X17572500Y-4875000D02*
X17572500Y-4975000D01*
X17522500Y-4925000D02*
X17622500Y-4925000D01*
X17700000Y-7100000D02*
X17700000Y-7200000D01*
X17650000Y-7150000D02*
X17750000Y-7150000D01*
D11*
X17635000Y-7200000D02*
X17765000Y-7200000D01*
X17765000Y-7200000D02*
G75*
G03*
X17765000Y-7100000I0J50000D01*
G01*
X17765000Y-7100000D02*
X17635000Y-7100000D01*
X17635000Y-7100000D02*
G75*
G03*
X17635000Y-7200000I0J-50000D01*
G01*
D10*
X17700000Y-7545000D02*
X17700000Y-7645000D01*
X17650000Y-7595000D02*
X17750000Y-7595000D01*
D11*
X17635000Y-7645000D02*
X17765000Y-7645000D01*
X17765000Y-7645000D02*
G75*
G03*
X17765000Y-7545000I0J50000D01*
G01*
X17765000Y-7545000D02*
X17635000Y-7545000D01*
X17635000Y-7545000D02*
G75*
G03*
X17635000Y-7645000I0J-50000D01*
G01*
D10*
X17826500Y-4875000D02*
X17826500Y-4975000D01*
X17776500Y-4925000D02*
X17876500Y-4925000D01*
X19072500Y-4875000D02*
X19072500Y-4975000D01*
X19022500Y-4925000D02*
X19122500Y-4925000D01*
X19200000Y-7100000D02*
X19200000Y-7200000D01*
X19150000Y-7150000D02*
X19250000Y-7150000D01*
D11*
X19135000Y-7200000D02*
X19265000Y-7200000D01*
X19265000Y-7200000D02*
G75*
G03*
X19265000Y-7100000I0J50000D01*
G01*
X19265000Y-7100000D02*
X19135000Y-7100000D01*
X19135000Y-7100000D02*
G75*
G03*
X19135000Y-7200000I0J-50000D01*
G01*
D10*
X19200000Y-7545000D02*
X19200000Y-7645000D01*
X19150000Y-7595000D02*
X19250000Y-7595000D01*
D11*
X19135000Y-7645000D02*
X19265000Y-7645000D01*
X19265000Y-7645000D02*
G75*
G03*
X19265000Y-7545000I0J50000D01*
G01*
X19265000Y-7545000D02*
X19135000Y-7545000D01*
X19135000Y-7545000D02*
G75*
G03*
X19135000Y-7645000I0J-50000D01*
G01*
D10*
X19326500Y-4875000D02*
X19326500Y-4975000D01*
X19276500Y-4925000D02*
X19376500Y-4925000D01*
D14*
X8513891Y-8183891D02*
X8513891Y-8106109D01*
X8436109Y-8106109D01*
X8436109Y-8183891D01*
X8513891Y-8183891D01*
X8513891Y-8833891D02*
X8513891Y-8756109D01*
X8436109Y-8756109D01*
X8436109Y-8833891D01*
X8513891Y-8833891D01*
X8963891Y-8183891D02*
X8963891Y-8106109D01*
X8886109Y-8106109D01*
X8886109Y-8183891D01*
X8963891Y-8183891D01*
X8963891Y-8833891D02*
X8963891Y-8756109D01*
X8886109Y-8756109D01*
X8886109Y-8833891D01*
X8963891Y-8833891D01*
X10013891Y-8183891D02*
X10013891Y-8106109D01*
X9936109Y-8106109D01*
X9936109Y-8183891D01*
X10013891Y-8183891D01*
X10013891Y-8833891D02*
X10013891Y-8756109D01*
X9936109Y-8756109D01*
X9936109Y-8833891D01*
X10013891Y-8833891D01*
X10463891Y-8183891D02*
X10463891Y-8106109D01*
X10386109Y-8106109D01*
X10386109Y-8183891D01*
X10463891Y-8183891D01*
X10463891Y-8833891D02*
X10463891Y-8756109D01*
X10386109Y-8756109D01*
X10386109Y-8833891D01*
X10463891Y-8833891D01*
X11513891Y-8183891D02*
X11513891Y-8106109D01*
X11436109Y-8106109D01*
X11436109Y-8183891D01*
X11513891Y-8183891D01*
X11513891Y-8833891D02*
X11513891Y-8756109D01*
X11436109Y-8756109D01*
X11436109Y-8833891D01*
X11513891Y-8833891D01*
X11963891Y-8183891D02*
X11963891Y-8106109D01*
X11886109Y-8106109D01*
X11886109Y-8183891D01*
X11963891Y-8183891D01*
X11963891Y-8833891D02*
X11963891Y-8756109D01*
X11886109Y-8756109D01*
X11886109Y-8833891D01*
X11963891Y-8833891D01*
X13013891Y-8183891D02*
X13013891Y-8106109D01*
X12936109Y-8106109D01*
X12936109Y-8183891D01*
X13013891Y-8183891D01*
X13013891Y-8833891D02*
X13013891Y-8756109D01*
X12936109Y-8756109D01*
X12936109Y-8833891D01*
X13013891Y-8833891D01*
X13463891Y-8183891D02*
X13463891Y-8106109D01*
X13386109Y-8106109D01*
X13386109Y-8183891D01*
X13463891Y-8183891D01*
X13463891Y-8833891D02*
X13463891Y-8756109D01*
X13386109Y-8756109D01*
X13386109Y-8833891D01*
X13463891Y-8833891D01*
X14513891Y-8183891D02*
X14513891Y-8106109D01*
X14436109Y-8106109D01*
X14436109Y-8183891D01*
X14513891Y-8183891D01*
X14513891Y-8833891D02*
X14513891Y-8756109D01*
X14436109Y-8756109D01*
X14436109Y-8833891D01*
X14513891Y-8833891D01*
X14963891Y-8183891D02*
X14963891Y-8106109D01*
X14886109Y-8106109D01*
X14886109Y-8183891D01*
X14963891Y-8183891D01*
X14963891Y-8833891D02*
X14963891Y-8756109D01*
X14886109Y-8756109D01*
X14886109Y-8833891D01*
X14963891Y-8833891D01*
X16013891Y-8183891D02*
X16013891Y-8106109D01*
X15936109Y-8106109D01*
X15936109Y-8183891D01*
X16013891Y-8183891D01*
X16013891Y-8833891D02*
X16013891Y-8756109D01*
X15936109Y-8756109D01*
X15936109Y-8833891D01*
X16013891Y-8833891D01*
X16463891Y-8183891D02*
X16463891Y-8106109D01*
X16386109Y-8106109D01*
X16386109Y-8183891D01*
X16463891Y-8183891D01*
X16463891Y-8833891D02*
X16463891Y-8756109D01*
X16386109Y-8756109D01*
X16386109Y-8833891D01*
X16463891Y-8833891D01*
X17513891Y-8183891D02*
X17513891Y-8106109D01*
X17436109Y-8106109D01*
X17436109Y-8183891D01*
X17513891Y-8183891D01*
X17513891Y-8833891D02*
X17513891Y-8756109D01*
X17436109Y-8756109D01*
X17436109Y-8833891D01*
X17513891Y-8833891D01*
X17963891Y-8183891D02*
X17963891Y-8106109D01*
X17886109Y-8106109D01*
X17886109Y-8183891D01*
X17963891Y-8183891D01*
X17963891Y-8833891D02*
X17963891Y-8756109D01*
X17886109Y-8756109D01*
X17886109Y-8833891D01*
X17963891Y-8833891D01*
X19013891Y-8158891D02*
X19013891Y-8081109D01*
X18936109Y-8081109D01*
X18936109Y-8158891D01*
X19013891Y-8158891D01*
X19013891Y-8808891D02*
X19013891Y-8731109D01*
X18936109Y-8731109D01*
X18936109Y-8808891D01*
X19013891Y-8808891D01*
X19463891Y-8158891D02*
X19463891Y-8081109D01*
X19386109Y-8081109D01*
X19386109Y-8158891D01*
X19463891Y-8158891D01*
X19463891Y-8808891D02*
X19463891Y-8731109D01*
X19386109Y-8731109D01*
X19386109Y-8808891D01*
X19463891Y-8808891D01*
D15*
X7700000Y-4950000D02*
X7860000Y-4790000D01*
X7700000Y-4630000D01*
X7540000Y-4790000D01*
X7700000Y-4950000D01*
X7700000Y-9160000D02*
X7860000Y-9000000D01*
X7700000Y-8840000D01*
X7540000Y-9000000D01*
X7700000Y-9160000D01*
X20200000Y-4950000D02*
X20360000Y-4790000D01*
X20200000Y-4630000D01*
X20040000Y-4790000D01*
X20200000Y-4950000D01*
X20200000Y-9160000D02*
X20360000Y-9000000D01*
X20200000Y-8840000D01*
X20040000Y-9000000D01*
X20200000Y-9160000D01*
D11*
X7542619Y-9685633D02*
X7542619Y-9485633D01*
X7542619Y-9485633D02*
X7590238Y-9485633D01*
X7590238Y-9485633D02*
X7618809Y-9495157D01*
X7618809Y-9495157D02*
X7637857Y-9514205D01*
X7637857Y-9514205D02*
X7647381Y-9533253D01*
X7647381Y-9533253D02*
X7656905Y-9571348D01*
X7656905Y-9571348D02*
X7656905Y-9599919D01*
X7656905Y-9599919D02*
X7647381Y-9638014D01*
X7647381Y-9638014D02*
X7637857Y-9657062D01*
X7637857Y-9657062D02*
X7618809Y-9676110D01*
X7618809Y-9676110D02*
X7590238Y-9685633D01*
X7590238Y-9685633D02*
X7542619Y-9685633D01*
X7742619Y-9685633D02*
X7742619Y-9552300D01*
X7742619Y-9590395D02*
X7752143Y-9571348D01*
X7752143Y-9571348D02*
X7761667Y-9561824D01*
X7761667Y-9561824D02*
X7780714Y-9552300D01*
X7780714Y-9552300D02*
X7799762Y-9552300D01*
X7866428Y-9685633D02*
X7866428Y-9552300D01*
X7866428Y-9485633D02*
X7856905Y-9495157D01*
X7856905Y-9495157D02*
X7866428Y-9504681D01*
X7866428Y-9504681D02*
X7875952Y-9495157D01*
X7875952Y-9495157D02*
X7866428Y-9485633D01*
X7866428Y-9485633D02*
X7866428Y-9504681D01*
X7990238Y-9685633D02*
X7971190Y-9676110D01*
X7971190Y-9676110D02*
X7961667Y-9657062D01*
X7961667Y-9657062D02*
X7961667Y-9485633D01*
X8095000Y-9685633D02*
X8075952Y-9676110D01*
X8075952Y-9676110D02*
X8066428Y-9657062D01*
X8066428Y-9657062D02*
X8066428Y-9485633D01*
X8291190Y-9685633D02*
X8291190Y-9485633D01*
X8291190Y-9485633D02*
X8357857Y-9628491D01*
X8357857Y-9628491D02*
X8424524Y-9485633D01*
X8424524Y-9485633D02*
X8424524Y-9685633D01*
X8605476Y-9685633D02*
X8605476Y-9580872D01*
X8605476Y-9580872D02*
X8595952Y-9561824D01*
X8595952Y-9561824D02*
X8576905Y-9552300D01*
X8576905Y-9552300D02*
X8538809Y-9552300D01*
X8538809Y-9552300D02*
X8519762Y-9561824D01*
X8605476Y-9676110D02*
X8586429Y-9685633D01*
X8586429Y-9685633D02*
X8538809Y-9685633D01*
X8538809Y-9685633D02*
X8519762Y-9676110D01*
X8519762Y-9676110D02*
X8510238Y-9657062D01*
X8510238Y-9657062D02*
X8510238Y-9638014D01*
X8510238Y-9638014D02*
X8519762Y-9618967D01*
X8519762Y-9618967D02*
X8538809Y-9609443D01*
X8538809Y-9609443D02*
X8586429Y-9609443D01*
X8586429Y-9609443D02*
X8605476Y-9599919D01*
X8700714Y-9552300D02*
X8700714Y-9752300D01*
X8700714Y-9561824D02*
X8719762Y-9552300D01*
X8719762Y-9552300D02*
X8757857Y-9552300D01*
X8757857Y-9552300D02*
X8776905Y-9561824D01*
X8776905Y-9561824D02*
X8786429Y-9571348D01*
X8786429Y-9571348D02*
X8795952Y-9590395D01*
X8795952Y-9590395D02*
X8795952Y-9647538D01*
X8795952Y-9647538D02*
X8786429Y-9666586D01*
X8786429Y-9666586D02*
X8776905Y-9676110D01*
X8776905Y-9676110D02*
X8757857Y-9685633D01*
X8757857Y-9685633D02*
X8719762Y-9685633D01*
X8719762Y-9685633D02*
X8700714Y-9676110D01*
X8881667Y-9666586D02*
X8891190Y-9676110D01*
X8891190Y-9676110D02*
X8881667Y-9685633D01*
X8881667Y-9685633D02*
X8872143Y-9676110D01*
X8872143Y-9676110D02*
X8881667Y-9666586D01*
X8881667Y-9666586D02*
X8881667Y-9685633D01*
X8881667Y-9561824D02*
X8891190Y-9571348D01*
X8891190Y-9571348D02*
X8881667Y-9580872D01*
X8881667Y-9580872D02*
X8872143Y-9571348D01*
X8872143Y-9571348D02*
X8881667Y-9561824D01*
X8881667Y-9561824D02*
X8881667Y-9580872D01*
D12*
X7265000Y-10017157D02*
X7295000Y-10047157D01*
X7295000Y-10017157D02*
X7265000Y-10047157D01*
D11*
X7580714Y-9905633D02*
X7599762Y-9905633D01*
X7599762Y-9905633D02*
X7618809Y-9915157D01*
X7618809Y-9915157D02*
X7628333Y-9924681D01*
X7628333Y-9924681D02*
X7637857Y-9943729D01*
X7637857Y-9943729D02*
X7647381Y-9981824D01*
X7647381Y-9981824D02*
X7647381Y-10029443D01*
X7647381Y-10029443D02*
X7637857Y-10067538D01*
X7637857Y-10067538D02*
X7628333Y-10086586D01*
X7628333Y-10086586D02*
X7618809Y-10096110D01*
X7618809Y-10096110D02*
X7599762Y-10105633D01*
X7599762Y-10105633D02*
X7580714Y-10105633D01*
X7580714Y-10105633D02*
X7561667Y-10096110D01*
X7561667Y-10096110D02*
X7552143Y-10086586D01*
X7552143Y-10086586D02*
X7542619Y-10067538D01*
X7542619Y-10067538D02*
X7533095Y-10029443D01*
X7533095Y-10029443D02*
X7533095Y-9981824D01*
X7533095Y-9981824D02*
X7542619Y-9943729D01*
X7542619Y-9943729D02*
X7552143Y-9924681D01*
X7552143Y-9924681D02*
X7561667Y-9915157D01*
X7561667Y-9915157D02*
X7580714Y-9905633D01*
X7733095Y-10086586D02*
X7742619Y-10096110D01*
X7742619Y-10096110D02*
X7733095Y-10105633D01*
X7733095Y-10105633D02*
X7723571Y-10096110D01*
X7723571Y-10096110D02*
X7733095Y-10086586D01*
X7733095Y-10086586D02*
X7733095Y-10105633D01*
X7809286Y-9905633D02*
X7933095Y-9905633D01*
X7933095Y-9905633D02*
X7866428Y-9981824D01*
X7866428Y-9981824D02*
X7895000Y-9981824D01*
X7895000Y-9981824D02*
X7914048Y-9991348D01*
X7914048Y-9991348D02*
X7923571Y-10000872D01*
X7923571Y-10000872D02*
X7933095Y-10019919D01*
X7933095Y-10019919D02*
X7933095Y-10067538D01*
X7933095Y-10067538D02*
X7923571Y-10086586D01*
X7923571Y-10086586D02*
X7914048Y-10096110D01*
X7914048Y-10096110D02*
X7895000Y-10105633D01*
X7895000Y-10105633D02*
X7837857Y-10105633D01*
X7837857Y-10105633D02*
X7818809Y-10096110D01*
X7818809Y-10096110D02*
X7809286Y-10086586D01*
X8056905Y-9905633D02*
X8075952Y-9905633D01*
X8075952Y-9905633D02*
X8095000Y-9915157D01*
X8095000Y-9915157D02*
X8104524Y-9924681D01*
X8104524Y-9924681D02*
X8114048Y-9943729D01*
X8114048Y-9943729D02*
X8123571Y-9981824D01*
X8123571Y-9981824D02*
X8123571Y-10029443D01*
X8123571Y-10029443D02*
X8114048Y-10067538D01*
X8114048Y-10067538D02*
X8104524Y-10086586D01*
X8104524Y-10086586D02*
X8095000Y-10096110D01*
X8095000Y-10096110D02*
X8075952Y-10105633D01*
X8075952Y-10105633D02*
X8056905Y-10105633D01*
X8056905Y-10105633D02*
X8037857Y-10096110D01*
X8037857Y-10096110D02*
X8028333Y-10086586D01*
X8028333Y-10086586D02*
X8018809Y-10067538D01*
X8018809Y-10067538D02*
X8009286Y-10029443D01*
X8009286Y-10029443D02*
X8009286Y-9981824D01*
X8009286Y-9981824D02*
X8018809Y-9943729D01*
X8018809Y-9943729D02*
X8028333Y-9924681D01*
X8028333Y-9924681D02*
X8037857Y-9915157D01*
X8037857Y-9915157D02*
X8056905Y-9905633D01*
X8247381Y-9905633D02*
X8266429Y-9905633D01*
X8266429Y-9905633D02*
X8285476Y-9915157D01*
X8285476Y-9915157D02*
X8295000Y-9924681D01*
X8295000Y-9924681D02*
X8304524Y-9943729D01*
X8304524Y-9943729D02*
X8314048Y-9981824D01*
X8314048Y-9981824D02*
X8314048Y-10029443D01*
X8314048Y-10029443D02*
X8304524Y-10067538D01*
X8304524Y-10067538D02*
X8295000Y-10086586D01*
X8295000Y-10086586D02*
X8285476Y-10096110D01*
X8285476Y-10096110D02*
X8266429Y-10105633D01*
X8266429Y-10105633D02*
X8247381Y-10105633D01*
X8247381Y-10105633D02*
X8228333Y-10096110D01*
X8228333Y-10096110D02*
X8218809Y-10086586D01*
X8218809Y-10086586D02*
X8209286Y-10067538D01*
X8209286Y-10067538D02*
X8199762Y-10029443D01*
X8199762Y-10029443D02*
X8199762Y-9981824D01*
X8199762Y-9981824D02*
X8209286Y-9943729D01*
X8209286Y-9943729D02*
X8218809Y-9924681D01*
X8218809Y-9924681D02*
X8228333Y-9915157D01*
X8228333Y-9915157D02*
X8247381Y-9905633D01*
X8399762Y-10105633D02*
X8399762Y-9972300D01*
X8399762Y-9991348D02*
X8409286Y-9981824D01*
X8409286Y-9981824D02*
X8428333Y-9972300D01*
X8428333Y-9972300D02*
X8456905Y-9972300D01*
X8456905Y-9972300D02*
X8475952Y-9981824D01*
X8475952Y-9981824D02*
X8485476Y-10000872D01*
X8485476Y-10000872D02*
X8485476Y-10105633D01*
X8485476Y-10000872D02*
X8495000Y-9981824D01*
X8495000Y-9981824D02*
X8514048Y-9972300D01*
X8514048Y-9972300D02*
X8542619Y-9972300D01*
X8542619Y-9972300D02*
X8561667Y-9981824D01*
X8561667Y-9981824D02*
X8571191Y-10000872D01*
X8571191Y-10000872D02*
X8571191Y-10105633D01*
X8666429Y-10105633D02*
X8666429Y-9972300D01*
X8666429Y-9991348D02*
X8675952Y-9981824D01*
X8675952Y-9981824D02*
X8695000Y-9972300D01*
X8695000Y-9972300D02*
X8723572Y-9972300D01*
X8723572Y-9972300D02*
X8742619Y-9981824D01*
X8742619Y-9981824D02*
X8752143Y-10000872D01*
X8752143Y-10000872D02*
X8752143Y-10105633D01*
X8752143Y-10000872D02*
X8761667Y-9981824D01*
X8761667Y-9981824D02*
X8780714Y-9972300D01*
X8780714Y-9972300D02*
X8809286Y-9972300D01*
X8809286Y-9972300D02*
X8828333Y-9981824D01*
X8828333Y-9981824D02*
X8837857Y-10000872D01*
X8837857Y-10000872D02*
X8837857Y-10105633D01*
X9195952Y-9896110D02*
X9024524Y-10153253D01*
X9420714Y-9905633D02*
X9439762Y-9905633D01*
X9439762Y-9905633D02*
X9458810Y-9915157D01*
X9458810Y-9915157D02*
X9468333Y-9924681D01*
X9468333Y-9924681D02*
X9477857Y-9943729D01*
X9477857Y-9943729D02*
X9487381Y-9981824D01*
X9487381Y-9981824D02*
X9487381Y-10029443D01*
X9487381Y-10029443D02*
X9477857Y-10067538D01*
X9477857Y-10067538D02*
X9468333Y-10086586D01*
X9468333Y-10086586D02*
X9458810Y-10096110D01*
X9458810Y-10096110D02*
X9439762Y-10105633D01*
X9439762Y-10105633D02*
X9420714Y-10105633D01*
X9420714Y-10105633D02*
X9401667Y-10096110D01*
X9401667Y-10096110D02*
X9392143Y-10086586D01*
X9392143Y-10086586D02*
X9382619Y-10067538D01*
X9382619Y-10067538D02*
X9373095Y-10029443D01*
X9373095Y-10029443D02*
X9373095Y-9981824D01*
X9373095Y-9981824D02*
X9382619Y-9943729D01*
X9382619Y-9943729D02*
X9392143Y-9924681D01*
X9392143Y-9924681D02*
X9401667Y-9915157D01*
X9401667Y-9915157D02*
X9420714Y-9905633D01*
X9573095Y-10086586D02*
X9582619Y-10096110D01*
X9582619Y-10096110D02*
X9573095Y-10105633D01*
X9573095Y-10105633D02*
X9563572Y-10096110D01*
X9563572Y-10096110D02*
X9573095Y-10086586D01*
X9573095Y-10086586D02*
X9573095Y-10105633D01*
X9706429Y-9905633D02*
X9725476Y-9905633D01*
X9725476Y-9905633D02*
X9744524Y-9915157D01*
X9744524Y-9915157D02*
X9754048Y-9924681D01*
X9754048Y-9924681D02*
X9763572Y-9943729D01*
X9763572Y-9943729D02*
X9773095Y-9981824D01*
X9773095Y-9981824D02*
X9773095Y-10029443D01*
X9773095Y-10029443D02*
X9763572Y-10067538D01*
X9763572Y-10067538D02*
X9754048Y-10086586D01*
X9754048Y-10086586D02*
X9744524Y-10096110D01*
X9744524Y-10096110D02*
X9725476Y-10105633D01*
X9725476Y-10105633D02*
X9706429Y-10105633D01*
X9706429Y-10105633D02*
X9687381Y-10096110D01*
X9687381Y-10096110D02*
X9677857Y-10086586D01*
X9677857Y-10086586D02*
X9668333Y-10067538D01*
X9668333Y-10067538D02*
X9658810Y-10029443D01*
X9658810Y-10029443D02*
X9658810Y-9981824D01*
X9658810Y-9981824D02*
X9668333Y-9943729D01*
X9668333Y-9943729D02*
X9677857Y-9924681D01*
X9677857Y-9924681D02*
X9687381Y-9915157D01*
X9687381Y-9915157D02*
X9706429Y-9905633D01*
X9963572Y-10105633D02*
X9849286Y-10105633D01*
X9906429Y-10105633D02*
X9906429Y-9905633D01*
X9906429Y-9905633D02*
X9887381Y-9934205D01*
X9887381Y-9934205D02*
X9868333Y-9953253D01*
X9868333Y-9953253D02*
X9849286Y-9962776D01*
X10154048Y-10105633D02*
X10039762Y-10105633D01*
X10096905Y-10105633D02*
X10096905Y-9905633D01*
X10096905Y-9905633D02*
X10077857Y-9934205D01*
X10077857Y-9934205D02*
X10058810Y-9953253D01*
X10058810Y-9953253D02*
X10039762Y-9962776D01*
X10268333Y-9991348D02*
X10249286Y-9981824D01*
X10249286Y-9981824D02*
X10239762Y-9972300D01*
X10239762Y-9972300D02*
X10230238Y-9953253D01*
X10230238Y-9953253D02*
X10230238Y-9943729D01*
X10230238Y-9943729D02*
X10239762Y-9924681D01*
X10239762Y-9924681D02*
X10249286Y-9915157D01*
X10249286Y-9915157D02*
X10268333Y-9905633D01*
X10268333Y-9905633D02*
X10306429Y-9905633D01*
X10306429Y-9905633D02*
X10325476Y-9915157D01*
X10325476Y-9915157D02*
X10335000Y-9924681D01*
X10335000Y-9924681D02*
X10344524Y-9943729D01*
X10344524Y-9943729D02*
X10344524Y-9953253D01*
X10344524Y-9953253D02*
X10335000Y-9972300D01*
X10335000Y-9972300D02*
X10325476Y-9981824D01*
X10325476Y-9981824D02*
X10306429Y-9991348D01*
X10306429Y-9991348D02*
X10268333Y-9991348D01*
X10268333Y-9991348D02*
X10249286Y-10000872D01*
X10249286Y-10000872D02*
X10239762Y-10010395D01*
X10239762Y-10010395D02*
X10230238Y-10029443D01*
X10230238Y-10029443D02*
X10230238Y-10067538D01*
X10230238Y-10067538D02*
X10239762Y-10086586D01*
X10239762Y-10086586D02*
X10249286Y-10096110D01*
X10249286Y-10096110D02*
X10268333Y-10105633D01*
X10268333Y-10105633D02*
X10306429Y-10105633D01*
X10306429Y-10105633D02*
X10325476Y-10096110D01*
X10325476Y-10096110D02*
X10335000Y-10086586D01*
X10335000Y-10086586D02*
X10344524Y-10067538D01*
X10344524Y-10067538D02*
X10344524Y-10029443D01*
X10344524Y-10029443D02*
X10335000Y-10010395D01*
X10335000Y-10010395D02*
X10325476Y-10000872D01*
X10325476Y-10000872D02*
X10306429Y-9991348D01*
X10420714Y-9905633D02*
X10420714Y-9943729D01*
X10496905Y-9905633D02*
X10496905Y-9943729D01*
X10759762Y-10181824D02*
X10750238Y-10172300D01*
X10750238Y-10172300D02*
X10731191Y-10143729D01*
X10731191Y-10143729D02*
X10721667Y-10124681D01*
X10721667Y-10124681D02*
X10712143Y-10096110D01*
X10712143Y-10096110D02*
X10702619Y-10048491D01*
X10702619Y-10048491D02*
X10702619Y-10010395D01*
X10702619Y-10010395D02*
X10712143Y-9962776D01*
X10712143Y-9962776D02*
X10721667Y-9934205D01*
X10721667Y-9934205D02*
X10731191Y-9915157D01*
X10731191Y-9915157D02*
X10750238Y-9886586D01*
X10750238Y-9886586D02*
X10759762Y-9877062D01*
X10864524Y-9991348D02*
X10845476Y-9981824D01*
X10845476Y-9981824D02*
X10835953Y-9972300D01*
X10835953Y-9972300D02*
X10826429Y-9953253D01*
X10826429Y-9953253D02*
X10826429Y-9943729D01*
X10826429Y-9943729D02*
X10835953Y-9924681D01*
X10835953Y-9924681D02*
X10845476Y-9915157D01*
X10845476Y-9915157D02*
X10864524Y-9905633D01*
X10864524Y-9905633D02*
X10902619Y-9905633D01*
X10902619Y-9905633D02*
X10921667Y-9915157D01*
X10921667Y-9915157D02*
X10931191Y-9924681D01*
X10931191Y-9924681D02*
X10940714Y-9943729D01*
X10940714Y-9943729D02*
X10940714Y-9953253D01*
X10940714Y-9953253D02*
X10931191Y-9972300D01*
X10931191Y-9972300D02*
X10921667Y-9981824D01*
X10921667Y-9981824D02*
X10902619Y-9991348D01*
X10902619Y-9991348D02*
X10864524Y-9991348D01*
X10864524Y-9991348D02*
X10845476Y-10000872D01*
X10845476Y-10000872D02*
X10835953Y-10010395D01*
X10835953Y-10010395D02*
X10826429Y-10029443D01*
X10826429Y-10029443D02*
X10826429Y-10067538D01*
X10826429Y-10067538D02*
X10835953Y-10086586D01*
X10835953Y-10086586D02*
X10845476Y-10096110D01*
X10845476Y-10096110D02*
X10864524Y-10105633D01*
X10864524Y-10105633D02*
X10902619Y-10105633D01*
X10902619Y-10105633D02*
X10921667Y-10096110D01*
X10921667Y-10096110D02*
X10931191Y-10086586D01*
X10931191Y-10086586D02*
X10940714Y-10067538D01*
X10940714Y-10067538D02*
X10940714Y-10029443D01*
X10940714Y-10029443D02*
X10931191Y-10010395D01*
X10931191Y-10010395D02*
X10921667Y-10000872D01*
X10921667Y-10000872D02*
X10902619Y-9991348D01*
X11146429Y-10105633D02*
X11146429Y-9905633D01*
X11232143Y-10105633D02*
X11232143Y-10000872D01*
X11232143Y-10000872D02*
X11222619Y-9981824D01*
X11222619Y-9981824D02*
X11203572Y-9972300D01*
X11203572Y-9972300D02*
X11175000Y-9972300D01*
X11175000Y-9972300D02*
X11155953Y-9981824D01*
X11155953Y-9981824D02*
X11146429Y-9991348D01*
X11355952Y-10105633D02*
X11336905Y-10096110D01*
X11336905Y-10096110D02*
X11327381Y-10086586D01*
X11327381Y-10086586D02*
X11317857Y-10067538D01*
X11317857Y-10067538D02*
X11317857Y-10010395D01*
X11317857Y-10010395D02*
X11327381Y-9991348D01*
X11327381Y-9991348D02*
X11336905Y-9981824D01*
X11336905Y-9981824D02*
X11355952Y-9972300D01*
X11355952Y-9972300D02*
X11384524Y-9972300D01*
X11384524Y-9972300D02*
X11403572Y-9981824D01*
X11403572Y-9981824D02*
X11413095Y-9991348D01*
X11413095Y-9991348D02*
X11422619Y-10010395D01*
X11422619Y-10010395D02*
X11422619Y-10067538D01*
X11422619Y-10067538D02*
X11413095Y-10086586D01*
X11413095Y-10086586D02*
X11403572Y-10096110D01*
X11403572Y-10096110D02*
X11384524Y-10105633D01*
X11384524Y-10105633D02*
X11355952Y-10105633D01*
X11536905Y-10105633D02*
X11517857Y-10096110D01*
X11517857Y-10096110D02*
X11508333Y-10077062D01*
X11508333Y-10077062D02*
X11508333Y-9905633D01*
X11689286Y-10096110D02*
X11670238Y-10105633D01*
X11670238Y-10105633D02*
X11632143Y-10105633D01*
X11632143Y-10105633D02*
X11613095Y-10096110D01*
X11613095Y-10096110D02*
X11603572Y-10077062D01*
X11603572Y-10077062D02*
X11603572Y-10000872D01*
X11603572Y-10000872D02*
X11613095Y-9981824D01*
X11613095Y-9981824D02*
X11632143Y-9972300D01*
X11632143Y-9972300D02*
X11670238Y-9972300D01*
X11670238Y-9972300D02*
X11689286Y-9981824D01*
X11689286Y-9981824D02*
X11698810Y-10000872D01*
X11698810Y-10000872D02*
X11698810Y-10019919D01*
X11698810Y-10019919D02*
X11603572Y-10038967D01*
X11775000Y-10096110D02*
X11794048Y-10105633D01*
X11794048Y-10105633D02*
X11832143Y-10105633D01*
X11832143Y-10105633D02*
X11851191Y-10096110D01*
X11851191Y-10096110D02*
X11860714Y-10077062D01*
X11860714Y-10077062D02*
X11860714Y-10067538D01*
X11860714Y-10067538D02*
X11851191Y-10048491D01*
X11851191Y-10048491D02*
X11832143Y-10038967D01*
X11832143Y-10038967D02*
X11803572Y-10038967D01*
X11803572Y-10038967D02*
X11784524Y-10029443D01*
X11784524Y-10029443D02*
X11775000Y-10010395D01*
X11775000Y-10010395D02*
X11775000Y-10000872D01*
X11775000Y-10000872D02*
X11784524Y-9981824D01*
X11784524Y-9981824D02*
X11803572Y-9972300D01*
X11803572Y-9972300D02*
X11832143Y-9972300D01*
X11832143Y-9972300D02*
X11851191Y-9981824D01*
X11927381Y-10181824D02*
X11936905Y-10172300D01*
X11936905Y-10172300D02*
X11955953Y-10143729D01*
X11955953Y-10143729D02*
X11965476Y-10124681D01*
X11965476Y-10124681D02*
X11975000Y-10096110D01*
X11975000Y-10096110D02*
X11984524Y-10048491D01*
X11984524Y-10048491D02*
X11984524Y-10010395D01*
X11984524Y-10010395D02*
X11975000Y-9962776D01*
X11975000Y-9962776D02*
X11965476Y-9934205D01*
X11965476Y-9934205D02*
X11955953Y-9915157D01*
X11955953Y-9915157D02*
X11936905Y-9886586D01*
X11936905Y-9886586D02*
X11927381Y-9877062D01*
D13*
X7295000Y-10296157D02*
G75*
G03*
X7295000Y-10296157I-25000J0D01*
G01*
D11*
X7580714Y-10169633D02*
X7599762Y-10169633D01*
X7599762Y-10169633D02*
X7618809Y-10179157D01*
X7618809Y-10179157D02*
X7628333Y-10188681D01*
X7628333Y-10188681D02*
X7637857Y-10207729D01*
X7637857Y-10207729D02*
X7647381Y-10245824D01*
X7647381Y-10245824D02*
X7647381Y-10293443D01*
X7647381Y-10293443D02*
X7637857Y-10331538D01*
X7637857Y-10331538D02*
X7628333Y-10350586D01*
X7628333Y-10350586D02*
X7618809Y-10360110D01*
X7618809Y-10360110D02*
X7599762Y-10369633D01*
X7599762Y-10369633D02*
X7580714Y-10369633D01*
X7580714Y-10369633D02*
X7561667Y-10360110D01*
X7561667Y-10360110D02*
X7552143Y-10350586D01*
X7552143Y-10350586D02*
X7542619Y-10331538D01*
X7542619Y-10331538D02*
X7533095Y-10293443D01*
X7533095Y-10293443D02*
X7533095Y-10245824D01*
X7533095Y-10245824D02*
X7542619Y-10207729D01*
X7542619Y-10207729D02*
X7552143Y-10188681D01*
X7552143Y-10188681D02*
X7561667Y-10179157D01*
X7561667Y-10179157D02*
X7580714Y-10169633D01*
X7733095Y-10350586D02*
X7742619Y-10360110D01*
X7742619Y-10360110D02*
X7733095Y-10369633D01*
X7733095Y-10369633D02*
X7723571Y-10360110D01*
X7723571Y-10360110D02*
X7733095Y-10350586D01*
X7733095Y-10350586D02*
X7733095Y-10369633D01*
X7923571Y-10169633D02*
X7828333Y-10169633D01*
X7828333Y-10169633D02*
X7818809Y-10264872D01*
X7818809Y-10264872D02*
X7828333Y-10255348D01*
X7828333Y-10255348D02*
X7847381Y-10245824D01*
X7847381Y-10245824D02*
X7895000Y-10245824D01*
X7895000Y-10245824D02*
X7914048Y-10255348D01*
X7914048Y-10255348D02*
X7923571Y-10264872D01*
X7923571Y-10264872D02*
X7933095Y-10283919D01*
X7933095Y-10283919D02*
X7933095Y-10331538D01*
X7933095Y-10331538D02*
X7923571Y-10350586D01*
X7923571Y-10350586D02*
X7914048Y-10360110D01*
X7914048Y-10360110D02*
X7895000Y-10369633D01*
X7895000Y-10369633D02*
X7847381Y-10369633D01*
X7847381Y-10369633D02*
X7828333Y-10360110D01*
X7828333Y-10360110D02*
X7818809Y-10350586D01*
X8056905Y-10169633D02*
X8075952Y-10169633D01*
X8075952Y-10169633D02*
X8095000Y-10179157D01*
X8095000Y-10179157D02*
X8104524Y-10188681D01*
X8104524Y-10188681D02*
X8114048Y-10207729D01*
X8114048Y-10207729D02*
X8123571Y-10245824D01*
X8123571Y-10245824D02*
X8123571Y-10293443D01*
X8123571Y-10293443D02*
X8114048Y-10331538D01*
X8114048Y-10331538D02*
X8104524Y-10350586D01*
X8104524Y-10350586D02*
X8095000Y-10360110D01*
X8095000Y-10360110D02*
X8075952Y-10369633D01*
X8075952Y-10369633D02*
X8056905Y-10369633D01*
X8056905Y-10369633D02*
X8037857Y-10360110D01*
X8037857Y-10360110D02*
X8028333Y-10350586D01*
X8028333Y-10350586D02*
X8018809Y-10331538D01*
X8018809Y-10331538D02*
X8009286Y-10293443D01*
X8009286Y-10293443D02*
X8009286Y-10245824D01*
X8009286Y-10245824D02*
X8018809Y-10207729D01*
X8018809Y-10207729D02*
X8028333Y-10188681D01*
X8028333Y-10188681D02*
X8037857Y-10179157D01*
X8037857Y-10179157D02*
X8056905Y-10169633D01*
X8247381Y-10169633D02*
X8266429Y-10169633D01*
X8266429Y-10169633D02*
X8285476Y-10179157D01*
X8285476Y-10179157D02*
X8295000Y-10188681D01*
X8295000Y-10188681D02*
X8304524Y-10207729D01*
X8304524Y-10207729D02*
X8314048Y-10245824D01*
X8314048Y-10245824D02*
X8314048Y-10293443D01*
X8314048Y-10293443D02*
X8304524Y-10331538D01*
X8304524Y-10331538D02*
X8295000Y-10350586D01*
X8295000Y-10350586D02*
X8285476Y-10360110D01*
X8285476Y-10360110D02*
X8266429Y-10369633D01*
X8266429Y-10369633D02*
X8247381Y-10369633D01*
X8247381Y-10369633D02*
X8228333Y-10360110D01*
X8228333Y-10360110D02*
X8218809Y-10350586D01*
X8218809Y-10350586D02*
X8209286Y-10331538D01*
X8209286Y-10331538D02*
X8199762Y-10293443D01*
X8199762Y-10293443D02*
X8199762Y-10245824D01*
X8199762Y-10245824D02*
X8209286Y-10207729D01*
X8209286Y-10207729D02*
X8218809Y-10188681D01*
X8218809Y-10188681D02*
X8228333Y-10179157D01*
X8228333Y-10179157D02*
X8247381Y-10169633D01*
X8399762Y-10369633D02*
X8399762Y-10236300D01*
X8399762Y-10255348D02*
X8409286Y-10245824D01*
X8409286Y-10245824D02*
X8428333Y-10236300D01*
X8428333Y-10236300D02*
X8456905Y-10236300D01*
X8456905Y-10236300D02*
X8475952Y-10245824D01*
X8475952Y-10245824D02*
X8485476Y-10264872D01*
X8485476Y-10264872D02*
X8485476Y-10369633D01*
X8485476Y-10264872D02*
X8495000Y-10245824D01*
X8495000Y-10245824D02*
X8514048Y-10236300D01*
X8514048Y-10236300D02*
X8542619Y-10236300D01*
X8542619Y-10236300D02*
X8561667Y-10245824D01*
X8561667Y-10245824D02*
X8571191Y-10264872D01*
X8571191Y-10264872D02*
X8571191Y-10369633D01*
X8666429Y-10369633D02*
X8666429Y-10236300D01*
X8666429Y-10255348D02*
X8675952Y-10245824D01*
X8675952Y-10245824D02*
X8695000Y-10236300D01*
X8695000Y-10236300D02*
X8723572Y-10236300D01*
X8723572Y-10236300D02*
X8742619Y-10245824D01*
X8742619Y-10245824D02*
X8752143Y-10264872D01*
X8752143Y-10264872D02*
X8752143Y-10369633D01*
X8752143Y-10264872D02*
X8761667Y-10245824D01*
X8761667Y-10245824D02*
X8780714Y-10236300D01*
X8780714Y-10236300D02*
X8809286Y-10236300D01*
X8809286Y-10236300D02*
X8828333Y-10245824D01*
X8828333Y-10245824D02*
X8837857Y-10264872D01*
X8837857Y-10264872D02*
X8837857Y-10369633D01*
X9195952Y-10160110D02*
X9024524Y-10417253D01*
X9420714Y-10169633D02*
X9439762Y-10169633D01*
X9439762Y-10169633D02*
X9458810Y-10179157D01*
X9458810Y-10179157D02*
X9468333Y-10188681D01*
X9468333Y-10188681D02*
X9477857Y-10207729D01*
X9477857Y-10207729D02*
X9487381Y-10245824D01*
X9487381Y-10245824D02*
X9487381Y-10293443D01*
X9487381Y-10293443D02*
X9477857Y-10331538D01*
X9477857Y-10331538D02*
X9468333Y-10350586D01*
X9468333Y-10350586D02*
X9458810Y-10360110D01*
X9458810Y-10360110D02*
X9439762Y-10369633D01*
X9439762Y-10369633D02*
X9420714Y-10369633D01*
X9420714Y-10369633D02*
X9401667Y-10360110D01*
X9401667Y-10360110D02*
X9392143Y-10350586D01*
X9392143Y-10350586D02*
X9382619Y-10331538D01*
X9382619Y-10331538D02*
X9373095Y-10293443D01*
X9373095Y-10293443D02*
X9373095Y-10245824D01*
X9373095Y-10245824D02*
X9382619Y-10207729D01*
X9382619Y-10207729D02*
X9392143Y-10188681D01*
X9392143Y-10188681D02*
X9401667Y-10179157D01*
X9401667Y-10179157D02*
X9420714Y-10169633D01*
X9573095Y-10350586D02*
X9582619Y-10360110D01*
X9582619Y-10360110D02*
X9573095Y-10369633D01*
X9573095Y-10369633D02*
X9563572Y-10360110D01*
X9563572Y-10360110D02*
X9573095Y-10350586D01*
X9573095Y-10350586D02*
X9573095Y-10369633D01*
X9706429Y-10169633D02*
X9725476Y-10169633D01*
X9725476Y-10169633D02*
X9744524Y-10179157D01*
X9744524Y-10179157D02*
X9754048Y-10188681D01*
X9754048Y-10188681D02*
X9763572Y-10207729D01*
X9763572Y-10207729D02*
X9773095Y-10245824D01*
X9773095Y-10245824D02*
X9773095Y-10293443D01*
X9773095Y-10293443D02*
X9763572Y-10331538D01*
X9763572Y-10331538D02*
X9754048Y-10350586D01*
X9754048Y-10350586D02*
X9744524Y-10360110D01*
X9744524Y-10360110D02*
X9725476Y-10369633D01*
X9725476Y-10369633D02*
X9706429Y-10369633D01*
X9706429Y-10369633D02*
X9687381Y-10360110D01*
X9687381Y-10360110D02*
X9677857Y-10350586D01*
X9677857Y-10350586D02*
X9668333Y-10331538D01*
X9668333Y-10331538D02*
X9658810Y-10293443D01*
X9658810Y-10293443D02*
X9658810Y-10245824D01*
X9658810Y-10245824D02*
X9668333Y-10207729D01*
X9668333Y-10207729D02*
X9677857Y-10188681D01*
X9677857Y-10188681D02*
X9687381Y-10179157D01*
X9687381Y-10179157D02*
X9706429Y-10169633D01*
X9963572Y-10369633D02*
X9849286Y-10369633D01*
X9906429Y-10369633D02*
X9906429Y-10169633D01*
X9906429Y-10169633D02*
X9887381Y-10198205D01*
X9887381Y-10198205D02*
X9868333Y-10217253D01*
X9868333Y-10217253D02*
X9849286Y-10226776D01*
X10058810Y-10369633D02*
X10096905Y-10369633D01*
X10096905Y-10369633D02*
X10115953Y-10360110D01*
X10115953Y-10360110D02*
X10125476Y-10350586D01*
X10125476Y-10350586D02*
X10144524Y-10322014D01*
X10144524Y-10322014D02*
X10154048Y-10283919D01*
X10154048Y-10283919D02*
X10154048Y-10207729D01*
X10154048Y-10207729D02*
X10144524Y-10188681D01*
X10144524Y-10188681D02*
X10135000Y-10179157D01*
X10135000Y-10179157D02*
X10115953Y-10169633D01*
X10115953Y-10169633D02*
X10077857Y-10169633D01*
X10077857Y-10169633D02*
X10058810Y-10179157D01*
X10058810Y-10179157D02*
X10049286Y-10188681D01*
X10049286Y-10188681D02*
X10039762Y-10207729D01*
X10039762Y-10207729D02*
X10039762Y-10255348D01*
X10039762Y-10255348D02*
X10049286Y-10274395D01*
X10049286Y-10274395D02*
X10058810Y-10283919D01*
X10058810Y-10283919D02*
X10077857Y-10293443D01*
X10077857Y-10293443D02*
X10115953Y-10293443D01*
X10115953Y-10293443D02*
X10135000Y-10283919D01*
X10135000Y-10283919D02*
X10144524Y-10274395D01*
X10144524Y-10274395D02*
X10154048Y-10255348D01*
X10220714Y-10169633D02*
X10354048Y-10169633D01*
X10354048Y-10169633D02*
X10268333Y-10369633D01*
X10420714Y-10169633D02*
X10420714Y-10207729D01*
X10496905Y-10169633D02*
X10496905Y-10207729D01*
X10759762Y-10445824D02*
X10750238Y-10436300D01*
X10750238Y-10436300D02*
X10731191Y-10407729D01*
X10731191Y-10407729D02*
X10721667Y-10388681D01*
X10721667Y-10388681D02*
X10712143Y-10360110D01*
X10712143Y-10360110D02*
X10702619Y-10312491D01*
X10702619Y-10312491D02*
X10702619Y-10274395D01*
X10702619Y-10274395D02*
X10712143Y-10226776D01*
X10712143Y-10226776D02*
X10721667Y-10198205D01*
X10721667Y-10198205D02*
X10731191Y-10179157D01*
X10731191Y-10179157D02*
X10750238Y-10150586D01*
X10750238Y-10150586D02*
X10759762Y-10141062D01*
X10816905Y-10169633D02*
X10940714Y-10169633D01*
X10940714Y-10169633D02*
X10874048Y-10245824D01*
X10874048Y-10245824D02*
X10902619Y-10245824D01*
X10902619Y-10245824D02*
X10921667Y-10255348D01*
X10921667Y-10255348D02*
X10931191Y-10264872D01*
X10931191Y-10264872D02*
X10940714Y-10283919D01*
X10940714Y-10283919D02*
X10940714Y-10331538D01*
X10940714Y-10331538D02*
X10931191Y-10350586D01*
X10931191Y-10350586D02*
X10921667Y-10360110D01*
X10921667Y-10360110D02*
X10902619Y-10369633D01*
X10902619Y-10369633D02*
X10845476Y-10369633D01*
X10845476Y-10369633D02*
X10826429Y-10360110D01*
X10826429Y-10360110D02*
X10816905Y-10350586D01*
X11016905Y-10188681D02*
X11026429Y-10179157D01*
X11026429Y-10179157D02*
X11045476Y-10169633D01*
X11045476Y-10169633D02*
X11093095Y-10169633D01*
X11093095Y-10169633D02*
X11112143Y-10179157D01*
X11112143Y-10179157D02*
X11121667Y-10188681D01*
X11121667Y-10188681D02*
X11131191Y-10207729D01*
X11131191Y-10207729D02*
X11131191Y-10226776D01*
X11131191Y-10226776D02*
X11121667Y-10255348D01*
X11121667Y-10255348D02*
X11007381Y-10369633D01*
X11007381Y-10369633D02*
X11131191Y-10369633D01*
X11336905Y-10369633D02*
X11336905Y-10169633D01*
X11422619Y-10369633D02*
X11422619Y-10264872D01*
X11422619Y-10264872D02*
X11413095Y-10245824D01*
X11413095Y-10245824D02*
X11394048Y-10236300D01*
X11394048Y-10236300D02*
X11365476Y-10236300D01*
X11365476Y-10236300D02*
X11346429Y-10245824D01*
X11346429Y-10245824D02*
X11336905Y-10255348D01*
X11546429Y-10369633D02*
X11527381Y-10360110D01*
X11527381Y-10360110D02*
X11517857Y-10350586D01*
X11517857Y-10350586D02*
X11508333Y-10331538D01*
X11508333Y-10331538D02*
X11508333Y-10274395D01*
X11508333Y-10274395D02*
X11517857Y-10255348D01*
X11517857Y-10255348D02*
X11527381Y-10245824D01*
X11527381Y-10245824D02*
X11546429Y-10236300D01*
X11546429Y-10236300D02*
X11575000Y-10236300D01*
X11575000Y-10236300D02*
X11594048Y-10245824D01*
X11594048Y-10245824D02*
X11603572Y-10255348D01*
X11603572Y-10255348D02*
X11613095Y-10274395D01*
X11613095Y-10274395D02*
X11613095Y-10331538D01*
X11613095Y-10331538D02*
X11603572Y-10350586D01*
X11603572Y-10350586D02*
X11594048Y-10360110D01*
X11594048Y-10360110D02*
X11575000Y-10369633D01*
X11575000Y-10369633D02*
X11546429Y-10369633D01*
X11727381Y-10369633D02*
X11708333Y-10360110D01*
X11708333Y-10360110D02*
X11698810Y-10341062D01*
X11698810Y-10341062D02*
X11698810Y-10169633D01*
X11879762Y-10360110D02*
X11860714Y-10369633D01*
X11860714Y-10369633D02*
X11822619Y-10369633D01*
X11822619Y-10369633D02*
X11803572Y-10360110D01*
X11803572Y-10360110D02*
X11794048Y-10341062D01*
X11794048Y-10341062D02*
X11794048Y-10264872D01*
X11794048Y-10264872D02*
X11803572Y-10245824D01*
X11803572Y-10245824D02*
X11822619Y-10236300D01*
X11822619Y-10236300D02*
X11860714Y-10236300D01*
X11860714Y-10236300D02*
X11879762Y-10245824D01*
X11879762Y-10245824D02*
X11889286Y-10264872D01*
X11889286Y-10264872D02*
X11889286Y-10283919D01*
X11889286Y-10283919D02*
X11794048Y-10302967D01*
X11965476Y-10360110D02*
X11984524Y-10369633D01*
X11984524Y-10369633D02*
X12022619Y-10369633D01*
X12022619Y-10369633D02*
X12041667Y-10360110D01*
X12041667Y-10360110D02*
X12051191Y-10341062D01*
X12051191Y-10341062D02*
X12051191Y-10331538D01*
X12051191Y-10331538D02*
X12041667Y-10312491D01*
X12041667Y-10312491D02*
X12022619Y-10302967D01*
X12022619Y-10302967D02*
X11994048Y-10302967D01*
X11994048Y-10302967D02*
X11975000Y-10293443D01*
X11975000Y-10293443D02*
X11965476Y-10274395D01*
X11965476Y-10274395D02*
X11965476Y-10264872D01*
X11965476Y-10264872D02*
X11975000Y-10245824D01*
X11975000Y-10245824D02*
X11994048Y-10236300D01*
X11994048Y-10236300D02*
X12022619Y-10236300D01*
X12022619Y-10236300D02*
X12041667Y-10245824D01*
X12117857Y-10445824D02*
X12127381Y-10436300D01*
X12127381Y-10436300D02*
X12146429Y-10407729D01*
X12146429Y-10407729D02*
X12155953Y-10388681D01*
X12155953Y-10388681D02*
X12165476Y-10360110D01*
X12165476Y-10360110D02*
X12175000Y-10312491D01*
X12175000Y-10312491D02*
X12175000Y-10274395D01*
X12175000Y-10274395D02*
X12165476Y-10226776D01*
X12165476Y-10226776D02*
X12155953Y-10198205D01*
X12155953Y-10198205D02*
X12146429Y-10179157D01*
X12146429Y-10179157D02*
X12127381Y-10150586D01*
X12127381Y-10150586D02*
X12117857Y-10141062D01*
D10*
X7245000Y-10510157D02*
X7245000Y-10610157D01*
X7195000Y-10560157D02*
X7295000Y-10560157D01*
D11*
X7647381Y-10633633D02*
X7533095Y-10633633D01*
X7590238Y-10633633D02*
X7590238Y-10433633D01*
X7590238Y-10433633D02*
X7571190Y-10462205D01*
X7571190Y-10462205D02*
X7552143Y-10481253D01*
X7552143Y-10481253D02*
X7533095Y-10490776D01*
X7733095Y-10614586D02*
X7742619Y-10624110D01*
X7742619Y-10624110D02*
X7733095Y-10633633D01*
X7733095Y-10633633D02*
X7723571Y-10624110D01*
X7723571Y-10624110D02*
X7733095Y-10614586D01*
X7733095Y-10614586D02*
X7733095Y-10633633D01*
X7866428Y-10433633D02*
X7885476Y-10433633D01*
X7885476Y-10433633D02*
X7904524Y-10443157D01*
X7904524Y-10443157D02*
X7914048Y-10452681D01*
X7914048Y-10452681D02*
X7923571Y-10471729D01*
X7923571Y-10471729D02*
X7933095Y-10509824D01*
X7933095Y-10509824D02*
X7933095Y-10557443D01*
X7933095Y-10557443D02*
X7923571Y-10595538D01*
X7923571Y-10595538D02*
X7914048Y-10614586D01*
X7914048Y-10614586D02*
X7904524Y-10624110D01*
X7904524Y-10624110D02*
X7885476Y-10633633D01*
X7885476Y-10633633D02*
X7866428Y-10633633D01*
X7866428Y-10633633D02*
X7847381Y-10624110D01*
X7847381Y-10624110D02*
X7837857Y-10614586D01*
X7837857Y-10614586D02*
X7828333Y-10595538D01*
X7828333Y-10595538D02*
X7818809Y-10557443D01*
X7818809Y-10557443D02*
X7818809Y-10509824D01*
X7818809Y-10509824D02*
X7828333Y-10471729D01*
X7828333Y-10471729D02*
X7837857Y-10452681D01*
X7837857Y-10452681D02*
X7847381Y-10443157D01*
X7847381Y-10443157D02*
X7866428Y-10433633D01*
X8056905Y-10433633D02*
X8075952Y-10433633D01*
X8075952Y-10433633D02*
X8095000Y-10443157D01*
X8095000Y-10443157D02*
X8104524Y-10452681D01*
X8104524Y-10452681D02*
X8114048Y-10471729D01*
X8114048Y-10471729D02*
X8123571Y-10509824D01*
X8123571Y-10509824D02*
X8123571Y-10557443D01*
X8123571Y-10557443D02*
X8114048Y-10595538D01*
X8114048Y-10595538D02*
X8104524Y-10614586D01*
X8104524Y-10614586D02*
X8095000Y-10624110D01*
X8095000Y-10624110D02*
X8075952Y-10633633D01*
X8075952Y-10633633D02*
X8056905Y-10633633D01*
X8056905Y-10633633D02*
X8037857Y-10624110D01*
X8037857Y-10624110D02*
X8028333Y-10614586D01*
X8028333Y-10614586D02*
X8018809Y-10595538D01*
X8018809Y-10595538D02*
X8009286Y-10557443D01*
X8009286Y-10557443D02*
X8009286Y-10509824D01*
X8009286Y-10509824D02*
X8018809Y-10471729D01*
X8018809Y-10471729D02*
X8028333Y-10452681D01*
X8028333Y-10452681D02*
X8037857Y-10443157D01*
X8037857Y-10443157D02*
X8056905Y-10433633D01*
X8247381Y-10433633D02*
X8266429Y-10433633D01*
X8266429Y-10433633D02*
X8285476Y-10443157D01*
X8285476Y-10443157D02*
X8295000Y-10452681D01*
X8295000Y-10452681D02*
X8304524Y-10471729D01*
X8304524Y-10471729D02*
X8314048Y-10509824D01*
X8314048Y-10509824D02*
X8314048Y-10557443D01*
X8314048Y-10557443D02*
X8304524Y-10595538D01*
X8304524Y-10595538D02*
X8295000Y-10614586D01*
X8295000Y-10614586D02*
X8285476Y-10624110D01*
X8285476Y-10624110D02*
X8266429Y-10633633D01*
X8266429Y-10633633D02*
X8247381Y-10633633D01*
X8247381Y-10633633D02*
X8228333Y-10624110D01*
X8228333Y-10624110D02*
X8218809Y-10614586D01*
X8218809Y-10614586D02*
X8209286Y-10595538D01*
X8209286Y-10595538D02*
X8199762Y-10557443D01*
X8199762Y-10557443D02*
X8199762Y-10509824D01*
X8199762Y-10509824D02*
X8209286Y-10471729D01*
X8209286Y-10471729D02*
X8218809Y-10452681D01*
X8218809Y-10452681D02*
X8228333Y-10443157D01*
X8228333Y-10443157D02*
X8247381Y-10433633D01*
X8399762Y-10633633D02*
X8399762Y-10500300D01*
X8399762Y-10519348D02*
X8409286Y-10509824D01*
X8409286Y-10509824D02*
X8428333Y-10500300D01*
X8428333Y-10500300D02*
X8456905Y-10500300D01*
X8456905Y-10500300D02*
X8475952Y-10509824D01*
X8475952Y-10509824D02*
X8485476Y-10528872D01*
X8485476Y-10528872D02*
X8485476Y-10633633D01*
X8485476Y-10528872D02*
X8495000Y-10509824D01*
X8495000Y-10509824D02*
X8514048Y-10500300D01*
X8514048Y-10500300D02*
X8542619Y-10500300D01*
X8542619Y-10500300D02*
X8561667Y-10509824D01*
X8561667Y-10509824D02*
X8571191Y-10528872D01*
X8571191Y-10528872D02*
X8571191Y-10633633D01*
X8666429Y-10633633D02*
X8666429Y-10500300D01*
X8666429Y-10519348D02*
X8675952Y-10509824D01*
X8675952Y-10509824D02*
X8695000Y-10500300D01*
X8695000Y-10500300D02*
X8723572Y-10500300D01*
X8723572Y-10500300D02*
X8742619Y-10509824D01*
X8742619Y-10509824D02*
X8752143Y-10528872D01*
X8752143Y-10528872D02*
X8752143Y-10633633D01*
X8752143Y-10528872D02*
X8761667Y-10509824D01*
X8761667Y-10509824D02*
X8780714Y-10500300D01*
X8780714Y-10500300D02*
X8809286Y-10500300D01*
X8809286Y-10500300D02*
X8828333Y-10509824D01*
X8828333Y-10509824D02*
X8837857Y-10528872D01*
X8837857Y-10528872D02*
X8837857Y-10633633D01*
X9195952Y-10424110D02*
X9024524Y-10681253D01*
X9420714Y-10433633D02*
X9439762Y-10433633D01*
X9439762Y-10433633D02*
X9458810Y-10443157D01*
X9458810Y-10443157D02*
X9468333Y-10452681D01*
X9468333Y-10452681D02*
X9477857Y-10471729D01*
X9477857Y-10471729D02*
X9487381Y-10509824D01*
X9487381Y-10509824D02*
X9487381Y-10557443D01*
X9487381Y-10557443D02*
X9477857Y-10595538D01*
X9477857Y-10595538D02*
X9468333Y-10614586D01*
X9468333Y-10614586D02*
X9458810Y-10624110D01*
X9458810Y-10624110D02*
X9439762Y-10633633D01*
X9439762Y-10633633D02*
X9420714Y-10633633D01*
X9420714Y-10633633D02*
X9401667Y-10624110D01*
X9401667Y-10624110D02*
X9392143Y-10614586D01*
X9392143Y-10614586D02*
X9382619Y-10595538D01*
X9382619Y-10595538D02*
X9373095Y-10557443D01*
X9373095Y-10557443D02*
X9373095Y-10509824D01*
X9373095Y-10509824D02*
X9382619Y-10471729D01*
X9382619Y-10471729D02*
X9392143Y-10452681D01*
X9392143Y-10452681D02*
X9401667Y-10443157D01*
X9401667Y-10443157D02*
X9420714Y-10433633D01*
X9573095Y-10614586D02*
X9582619Y-10624110D01*
X9582619Y-10624110D02*
X9573095Y-10633633D01*
X9573095Y-10633633D02*
X9563572Y-10624110D01*
X9563572Y-10624110D02*
X9573095Y-10614586D01*
X9573095Y-10614586D02*
X9573095Y-10633633D01*
X9706429Y-10433633D02*
X9725476Y-10433633D01*
X9725476Y-10433633D02*
X9744524Y-10443157D01*
X9744524Y-10443157D02*
X9754048Y-10452681D01*
X9754048Y-10452681D02*
X9763572Y-10471729D01*
X9763572Y-10471729D02*
X9773095Y-10509824D01*
X9773095Y-10509824D02*
X9773095Y-10557443D01*
X9773095Y-10557443D02*
X9763572Y-10595538D01*
X9763572Y-10595538D02*
X9754048Y-10614586D01*
X9754048Y-10614586D02*
X9744524Y-10624110D01*
X9744524Y-10624110D02*
X9725476Y-10633633D01*
X9725476Y-10633633D02*
X9706429Y-10633633D01*
X9706429Y-10633633D02*
X9687381Y-10624110D01*
X9687381Y-10624110D02*
X9677857Y-10614586D01*
X9677857Y-10614586D02*
X9668333Y-10595538D01*
X9668333Y-10595538D02*
X9658810Y-10557443D01*
X9658810Y-10557443D02*
X9658810Y-10509824D01*
X9658810Y-10509824D02*
X9668333Y-10471729D01*
X9668333Y-10471729D02*
X9677857Y-10452681D01*
X9677857Y-10452681D02*
X9687381Y-10443157D01*
X9687381Y-10443157D02*
X9706429Y-10433633D01*
X9839762Y-10433633D02*
X9963572Y-10433633D01*
X9963572Y-10433633D02*
X9896905Y-10509824D01*
X9896905Y-10509824D02*
X9925476Y-10509824D01*
X9925476Y-10509824D02*
X9944524Y-10519348D01*
X9944524Y-10519348D02*
X9954048Y-10528872D01*
X9954048Y-10528872D02*
X9963572Y-10547919D01*
X9963572Y-10547919D02*
X9963572Y-10595538D01*
X9963572Y-10595538D02*
X9954048Y-10614586D01*
X9954048Y-10614586D02*
X9944524Y-10624110D01*
X9944524Y-10624110D02*
X9925476Y-10633633D01*
X9925476Y-10633633D02*
X9868333Y-10633633D01*
X9868333Y-10633633D02*
X9849286Y-10624110D01*
X9849286Y-10624110D02*
X9839762Y-10614586D01*
X10058810Y-10633633D02*
X10096905Y-10633633D01*
X10096905Y-10633633D02*
X10115953Y-10624110D01*
X10115953Y-10624110D02*
X10125476Y-10614586D01*
X10125476Y-10614586D02*
X10144524Y-10586014D01*
X10144524Y-10586014D02*
X10154048Y-10547919D01*
X10154048Y-10547919D02*
X10154048Y-10471729D01*
X10154048Y-10471729D02*
X10144524Y-10452681D01*
X10144524Y-10452681D02*
X10135000Y-10443157D01*
X10135000Y-10443157D02*
X10115953Y-10433633D01*
X10115953Y-10433633D02*
X10077857Y-10433633D01*
X10077857Y-10433633D02*
X10058810Y-10443157D01*
X10058810Y-10443157D02*
X10049286Y-10452681D01*
X10049286Y-10452681D02*
X10039762Y-10471729D01*
X10039762Y-10471729D02*
X10039762Y-10519348D01*
X10039762Y-10519348D02*
X10049286Y-10538395D01*
X10049286Y-10538395D02*
X10058810Y-10547919D01*
X10058810Y-10547919D02*
X10077857Y-10557443D01*
X10077857Y-10557443D02*
X10115953Y-10557443D01*
X10115953Y-10557443D02*
X10135000Y-10547919D01*
X10135000Y-10547919D02*
X10144524Y-10538395D01*
X10144524Y-10538395D02*
X10154048Y-10519348D01*
X10325476Y-10500300D02*
X10325476Y-10633633D01*
X10277857Y-10424110D02*
X10230238Y-10566967D01*
X10230238Y-10566967D02*
X10354048Y-10566967D01*
X10420714Y-10433633D02*
X10420714Y-10471729D01*
X10496905Y-10433633D02*
X10496905Y-10471729D01*
X10759762Y-10709824D02*
X10750238Y-10700300D01*
X10750238Y-10700300D02*
X10731191Y-10671729D01*
X10731191Y-10671729D02*
X10721667Y-10652681D01*
X10721667Y-10652681D02*
X10712143Y-10624110D01*
X10712143Y-10624110D02*
X10702619Y-10576491D01*
X10702619Y-10576491D02*
X10702619Y-10538395D01*
X10702619Y-10538395D02*
X10712143Y-10490776D01*
X10712143Y-10490776D02*
X10721667Y-10462205D01*
X10721667Y-10462205D02*
X10731191Y-10443157D01*
X10731191Y-10443157D02*
X10750238Y-10414586D01*
X10750238Y-10414586D02*
X10759762Y-10405062D01*
X10826429Y-10452681D02*
X10835953Y-10443157D01*
X10835953Y-10443157D02*
X10855000Y-10433633D01*
X10855000Y-10433633D02*
X10902619Y-10433633D01*
X10902619Y-10433633D02*
X10921667Y-10443157D01*
X10921667Y-10443157D02*
X10931191Y-10452681D01*
X10931191Y-10452681D02*
X10940714Y-10471729D01*
X10940714Y-10471729D02*
X10940714Y-10490776D01*
X10940714Y-10490776D02*
X10931191Y-10519348D01*
X10931191Y-10519348D02*
X10816905Y-10633633D01*
X10816905Y-10633633D02*
X10940714Y-10633633D01*
X11112143Y-10500300D02*
X11112143Y-10633633D01*
X11064524Y-10424110D02*
X11016905Y-10566967D01*
X11016905Y-10566967D02*
X11140714Y-10566967D01*
X11336905Y-10633633D02*
X11336905Y-10433633D01*
X11422619Y-10633633D02*
X11422619Y-10528872D01*
X11422619Y-10528872D02*
X11413095Y-10509824D01*
X11413095Y-10509824D02*
X11394048Y-10500300D01*
X11394048Y-10500300D02*
X11365476Y-10500300D01*
X11365476Y-10500300D02*
X11346429Y-10509824D01*
X11346429Y-10509824D02*
X11336905Y-10519348D01*
X11546429Y-10633633D02*
X11527381Y-10624110D01*
X11527381Y-10624110D02*
X11517857Y-10614586D01*
X11517857Y-10614586D02*
X11508333Y-10595538D01*
X11508333Y-10595538D02*
X11508333Y-10538395D01*
X11508333Y-10538395D02*
X11517857Y-10519348D01*
X11517857Y-10519348D02*
X11527381Y-10509824D01*
X11527381Y-10509824D02*
X11546429Y-10500300D01*
X11546429Y-10500300D02*
X11575000Y-10500300D01*
X11575000Y-10500300D02*
X11594048Y-10509824D01*
X11594048Y-10509824D02*
X11603572Y-10519348D01*
X11603572Y-10519348D02*
X11613095Y-10538395D01*
X11613095Y-10538395D02*
X11613095Y-10595538D01*
X11613095Y-10595538D02*
X11603572Y-10614586D01*
X11603572Y-10614586D02*
X11594048Y-10624110D01*
X11594048Y-10624110D02*
X11575000Y-10633633D01*
X11575000Y-10633633D02*
X11546429Y-10633633D01*
X11727381Y-10633633D02*
X11708333Y-10624110D01*
X11708333Y-10624110D02*
X11698810Y-10605062D01*
X11698810Y-10605062D02*
X11698810Y-10433633D01*
X11879762Y-10624110D02*
X11860714Y-10633633D01*
X11860714Y-10633633D02*
X11822619Y-10633633D01*
X11822619Y-10633633D02*
X11803572Y-10624110D01*
X11803572Y-10624110D02*
X11794048Y-10605062D01*
X11794048Y-10605062D02*
X11794048Y-10528872D01*
X11794048Y-10528872D02*
X11803572Y-10509824D01*
X11803572Y-10509824D02*
X11822619Y-10500300D01*
X11822619Y-10500300D02*
X11860714Y-10500300D01*
X11860714Y-10500300D02*
X11879762Y-10509824D01*
X11879762Y-10509824D02*
X11889286Y-10528872D01*
X11889286Y-10528872D02*
X11889286Y-10547919D01*
X11889286Y-10547919D02*
X11794048Y-10566967D01*
X11965476Y-10624110D02*
X11984524Y-10633633D01*
X11984524Y-10633633D02*
X12022619Y-10633633D01*
X12022619Y-10633633D02*
X12041667Y-10624110D01*
X12041667Y-10624110D02*
X12051191Y-10605062D01*
X12051191Y-10605062D02*
X12051191Y-10595538D01*
X12051191Y-10595538D02*
X12041667Y-10576491D01*
X12041667Y-10576491D02*
X12022619Y-10566967D01*
X12022619Y-10566967D02*
X11994048Y-10566967D01*
X11994048Y-10566967D02*
X11975000Y-10557443D01*
X11975000Y-10557443D02*
X11965476Y-10538395D01*
X11965476Y-10538395D02*
X11965476Y-10528872D01*
X11965476Y-10528872D02*
X11975000Y-10509824D01*
X11975000Y-10509824D02*
X11994048Y-10500300D01*
X11994048Y-10500300D02*
X12022619Y-10500300D01*
X12022619Y-10500300D02*
X12041667Y-10509824D01*
X12256905Y-10557443D02*
X12409286Y-10557443D01*
X12333095Y-10633633D02*
X12333095Y-10481253D01*
X12729286Y-10633633D02*
X12615000Y-10633633D01*
X12672143Y-10633633D02*
X12672143Y-10433633D01*
X12672143Y-10433633D02*
X12653095Y-10462205D01*
X12653095Y-10462205D02*
X12634048Y-10481253D01*
X12634048Y-10481253D02*
X12615000Y-10490776D01*
X12900714Y-10433633D02*
X12862619Y-10433633D01*
X12862619Y-10433633D02*
X12843572Y-10443157D01*
X12843572Y-10443157D02*
X12834048Y-10452681D01*
X12834048Y-10452681D02*
X12815000Y-10481253D01*
X12815000Y-10481253D02*
X12805476Y-10519348D01*
X12805476Y-10519348D02*
X12805476Y-10595538D01*
X12805476Y-10595538D02*
X12815000Y-10614586D01*
X12815000Y-10614586D02*
X12824524Y-10624110D01*
X12824524Y-10624110D02*
X12843572Y-10633633D01*
X12843572Y-10633633D02*
X12881667Y-10633633D01*
X12881667Y-10633633D02*
X12900714Y-10624110D01*
X12900714Y-10624110D02*
X12910238Y-10614586D01*
X12910238Y-10614586D02*
X12919762Y-10595538D01*
X12919762Y-10595538D02*
X12919762Y-10547919D01*
X12919762Y-10547919D02*
X12910238Y-10528872D01*
X12910238Y-10528872D02*
X12900714Y-10519348D01*
X12900714Y-10519348D02*
X12881667Y-10509824D01*
X12881667Y-10509824D02*
X12843572Y-10509824D01*
X12843572Y-10509824D02*
X12824524Y-10519348D01*
X12824524Y-10519348D02*
X12815000Y-10528872D01*
X12815000Y-10528872D02*
X12805476Y-10547919D01*
X13115953Y-10624110D02*
X13135000Y-10633633D01*
X13135000Y-10633633D02*
X13173095Y-10633633D01*
X13173095Y-10633633D02*
X13192143Y-10624110D01*
X13192143Y-10624110D02*
X13201667Y-10605062D01*
X13201667Y-10605062D02*
X13201667Y-10595538D01*
X13201667Y-10595538D02*
X13192143Y-10576491D01*
X13192143Y-10576491D02*
X13173095Y-10566967D01*
X13173095Y-10566967D02*
X13144524Y-10566967D01*
X13144524Y-10566967D02*
X13125476Y-10557443D01*
X13125476Y-10557443D02*
X13115953Y-10538395D01*
X13115953Y-10538395D02*
X13115953Y-10528872D01*
X13115953Y-10528872D02*
X13125476Y-10509824D01*
X13125476Y-10509824D02*
X13144524Y-10500300D01*
X13144524Y-10500300D02*
X13173095Y-10500300D01*
X13173095Y-10500300D02*
X13192143Y-10509824D01*
X13315953Y-10633633D02*
X13296905Y-10624110D01*
X13296905Y-10624110D02*
X13287381Y-10605062D01*
X13287381Y-10605062D02*
X13287381Y-10433633D01*
X13420714Y-10633633D02*
X13401667Y-10624110D01*
X13401667Y-10624110D02*
X13392143Y-10614586D01*
X13392143Y-10614586D02*
X13382619Y-10595538D01*
X13382619Y-10595538D02*
X13382619Y-10538395D01*
X13382619Y-10538395D02*
X13392143Y-10519348D01*
X13392143Y-10519348D02*
X13401667Y-10509824D01*
X13401667Y-10509824D02*
X13420714Y-10500300D01*
X13420714Y-10500300D02*
X13449286Y-10500300D01*
X13449286Y-10500300D02*
X13468334Y-10509824D01*
X13468334Y-10509824D02*
X13477857Y-10519348D01*
X13477857Y-10519348D02*
X13487381Y-10538395D01*
X13487381Y-10538395D02*
X13487381Y-10595538D01*
X13487381Y-10595538D02*
X13477857Y-10614586D01*
X13477857Y-10614586D02*
X13468334Y-10624110D01*
X13468334Y-10624110D02*
X13449286Y-10633633D01*
X13449286Y-10633633D02*
X13420714Y-10633633D01*
X13544524Y-10500300D02*
X13620714Y-10500300D01*
X13573095Y-10433633D02*
X13573095Y-10605062D01*
X13573095Y-10605062D02*
X13582619Y-10624110D01*
X13582619Y-10624110D02*
X13601667Y-10633633D01*
X13601667Y-10633633D02*
X13620714Y-10633633D01*
X13677857Y-10624110D02*
X13696905Y-10633633D01*
X13696905Y-10633633D02*
X13735000Y-10633633D01*
X13735000Y-10633633D02*
X13754048Y-10624110D01*
X13754048Y-10624110D02*
X13763572Y-10605062D01*
X13763572Y-10605062D02*
X13763572Y-10595538D01*
X13763572Y-10595538D02*
X13754048Y-10576491D01*
X13754048Y-10576491D02*
X13735000Y-10566967D01*
X13735000Y-10566967D02*
X13706429Y-10566967D01*
X13706429Y-10566967D02*
X13687381Y-10557443D01*
X13687381Y-10557443D02*
X13677857Y-10538395D01*
X13677857Y-10538395D02*
X13677857Y-10528872D01*
X13677857Y-10528872D02*
X13687381Y-10509824D01*
X13687381Y-10509824D02*
X13706429Y-10500300D01*
X13706429Y-10500300D02*
X13735000Y-10500300D01*
X13735000Y-10500300D02*
X13754048Y-10509824D01*
X13830238Y-10709824D02*
X13839762Y-10700300D01*
X13839762Y-10700300D02*
X13858810Y-10671729D01*
X13858810Y-10671729D02*
X13868334Y-10652681D01*
X13868334Y-10652681D02*
X13877857Y-10624110D01*
X13877857Y-10624110D02*
X13887381Y-10576491D01*
X13887381Y-10576491D02*
X13887381Y-10538395D01*
X13887381Y-10538395D02*
X13877857Y-10490776D01*
X13877857Y-10490776D02*
X13868334Y-10462205D01*
X13868334Y-10462205D02*
X13858810Y-10443157D01*
X13858810Y-10443157D02*
X13839762Y-10414586D01*
X13839762Y-10414586D02*
X13830238Y-10405062D01*
D14*
X7278891Y-10863049D02*
X7278891Y-10785266D01*
X7201109Y-10785266D01*
X7201109Y-10863049D01*
X7278891Y-10863049D01*
D11*
X7647381Y-10897633D02*
X7533095Y-10897633D01*
X7590238Y-10897633D02*
X7590238Y-10697633D01*
X7590238Y-10697633D02*
X7571190Y-10726205D01*
X7571190Y-10726205D02*
X7552143Y-10745253D01*
X7552143Y-10745253D02*
X7533095Y-10754776D01*
X7733095Y-10878586D02*
X7742619Y-10888110D01*
X7742619Y-10888110D02*
X7733095Y-10897633D01*
X7733095Y-10897633D02*
X7723571Y-10888110D01*
X7723571Y-10888110D02*
X7733095Y-10878586D01*
X7733095Y-10878586D02*
X7733095Y-10897633D01*
X7933095Y-10897633D02*
X7818809Y-10897633D01*
X7875952Y-10897633D02*
X7875952Y-10697633D01*
X7875952Y-10697633D02*
X7856905Y-10726205D01*
X7856905Y-10726205D02*
X7837857Y-10745253D01*
X7837857Y-10745253D02*
X7818809Y-10754776D01*
X8056905Y-10697633D02*
X8075952Y-10697633D01*
X8075952Y-10697633D02*
X8095000Y-10707157D01*
X8095000Y-10707157D02*
X8104524Y-10716681D01*
X8104524Y-10716681D02*
X8114048Y-10735729D01*
X8114048Y-10735729D02*
X8123571Y-10773824D01*
X8123571Y-10773824D02*
X8123571Y-10821443D01*
X8123571Y-10821443D02*
X8114048Y-10859538D01*
X8114048Y-10859538D02*
X8104524Y-10878586D01*
X8104524Y-10878586D02*
X8095000Y-10888110D01*
X8095000Y-10888110D02*
X8075952Y-10897633D01*
X8075952Y-10897633D02*
X8056905Y-10897633D01*
X8056905Y-10897633D02*
X8037857Y-10888110D01*
X8037857Y-10888110D02*
X8028333Y-10878586D01*
X8028333Y-10878586D02*
X8018809Y-10859538D01*
X8018809Y-10859538D02*
X8009286Y-10821443D01*
X8009286Y-10821443D02*
X8009286Y-10773824D01*
X8009286Y-10773824D02*
X8018809Y-10735729D01*
X8018809Y-10735729D02*
X8028333Y-10716681D01*
X8028333Y-10716681D02*
X8037857Y-10707157D01*
X8037857Y-10707157D02*
X8056905Y-10697633D01*
X8247381Y-10697633D02*
X8266429Y-10697633D01*
X8266429Y-10697633D02*
X8285476Y-10707157D01*
X8285476Y-10707157D02*
X8295000Y-10716681D01*
X8295000Y-10716681D02*
X8304524Y-10735729D01*
X8304524Y-10735729D02*
X8314048Y-10773824D01*
X8314048Y-10773824D02*
X8314048Y-10821443D01*
X8314048Y-10821443D02*
X8304524Y-10859538D01*
X8304524Y-10859538D02*
X8295000Y-10878586D01*
X8295000Y-10878586D02*
X8285476Y-10888110D01*
X8285476Y-10888110D02*
X8266429Y-10897633D01*
X8266429Y-10897633D02*
X8247381Y-10897633D01*
X8247381Y-10897633D02*
X8228333Y-10888110D01*
X8228333Y-10888110D02*
X8218809Y-10878586D01*
X8218809Y-10878586D02*
X8209286Y-10859538D01*
X8209286Y-10859538D02*
X8199762Y-10821443D01*
X8199762Y-10821443D02*
X8199762Y-10773824D01*
X8199762Y-10773824D02*
X8209286Y-10735729D01*
X8209286Y-10735729D02*
X8218809Y-10716681D01*
X8218809Y-10716681D02*
X8228333Y-10707157D01*
X8228333Y-10707157D02*
X8247381Y-10697633D01*
X8399762Y-10897633D02*
X8399762Y-10764300D01*
X8399762Y-10783348D02*
X8409286Y-10773824D01*
X8409286Y-10773824D02*
X8428333Y-10764300D01*
X8428333Y-10764300D02*
X8456905Y-10764300D01*
X8456905Y-10764300D02*
X8475952Y-10773824D01*
X8475952Y-10773824D02*
X8485476Y-10792872D01*
X8485476Y-10792872D02*
X8485476Y-10897633D01*
X8485476Y-10792872D02*
X8495000Y-10773824D01*
X8495000Y-10773824D02*
X8514048Y-10764300D01*
X8514048Y-10764300D02*
X8542619Y-10764300D01*
X8542619Y-10764300D02*
X8561667Y-10773824D01*
X8561667Y-10773824D02*
X8571191Y-10792872D01*
X8571191Y-10792872D02*
X8571191Y-10897633D01*
X8666429Y-10897633D02*
X8666429Y-10764300D01*
X8666429Y-10783348D02*
X8675952Y-10773824D01*
X8675952Y-10773824D02*
X8695000Y-10764300D01*
X8695000Y-10764300D02*
X8723572Y-10764300D01*
X8723572Y-10764300D02*
X8742619Y-10773824D01*
X8742619Y-10773824D02*
X8752143Y-10792872D01*
X8752143Y-10792872D02*
X8752143Y-10897633D01*
X8752143Y-10792872D02*
X8761667Y-10773824D01*
X8761667Y-10773824D02*
X8780714Y-10764300D01*
X8780714Y-10764300D02*
X8809286Y-10764300D01*
X8809286Y-10764300D02*
X8828333Y-10773824D01*
X8828333Y-10773824D02*
X8837857Y-10792872D01*
X8837857Y-10792872D02*
X8837857Y-10897633D01*
X9195952Y-10688110D02*
X9024524Y-10945253D01*
X9420714Y-10697633D02*
X9439762Y-10697633D01*
X9439762Y-10697633D02*
X9458810Y-10707157D01*
X9458810Y-10707157D02*
X9468333Y-10716681D01*
X9468333Y-10716681D02*
X9477857Y-10735729D01*
X9477857Y-10735729D02*
X9487381Y-10773824D01*
X9487381Y-10773824D02*
X9487381Y-10821443D01*
X9487381Y-10821443D02*
X9477857Y-10859538D01*
X9477857Y-10859538D02*
X9468333Y-10878586D01*
X9468333Y-10878586D02*
X9458810Y-10888110D01*
X9458810Y-10888110D02*
X9439762Y-10897633D01*
X9439762Y-10897633D02*
X9420714Y-10897633D01*
X9420714Y-10897633D02*
X9401667Y-10888110D01*
X9401667Y-10888110D02*
X9392143Y-10878586D01*
X9392143Y-10878586D02*
X9382619Y-10859538D01*
X9382619Y-10859538D02*
X9373095Y-10821443D01*
X9373095Y-10821443D02*
X9373095Y-10773824D01*
X9373095Y-10773824D02*
X9382619Y-10735729D01*
X9382619Y-10735729D02*
X9392143Y-10716681D01*
X9392143Y-10716681D02*
X9401667Y-10707157D01*
X9401667Y-10707157D02*
X9420714Y-10697633D01*
X9573095Y-10878586D02*
X9582619Y-10888110D01*
X9582619Y-10888110D02*
X9573095Y-10897633D01*
X9573095Y-10897633D02*
X9563572Y-10888110D01*
X9563572Y-10888110D02*
X9573095Y-10878586D01*
X9573095Y-10878586D02*
X9573095Y-10897633D01*
X9706429Y-10697633D02*
X9725476Y-10697633D01*
X9725476Y-10697633D02*
X9744524Y-10707157D01*
X9744524Y-10707157D02*
X9754048Y-10716681D01*
X9754048Y-10716681D02*
X9763572Y-10735729D01*
X9763572Y-10735729D02*
X9773095Y-10773824D01*
X9773095Y-10773824D02*
X9773095Y-10821443D01*
X9773095Y-10821443D02*
X9763572Y-10859538D01*
X9763572Y-10859538D02*
X9754048Y-10878586D01*
X9754048Y-10878586D02*
X9744524Y-10888110D01*
X9744524Y-10888110D02*
X9725476Y-10897633D01*
X9725476Y-10897633D02*
X9706429Y-10897633D01*
X9706429Y-10897633D02*
X9687381Y-10888110D01*
X9687381Y-10888110D02*
X9677857Y-10878586D01*
X9677857Y-10878586D02*
X9668333Y-10859538D01*
X9668333Y-10859538D02*
X9658810Y-10821443D01*
X9658810Y-10821443D02*
X9658810Y-10773824D01*
X9658810Y-10773824D02*
X9668333Y-10735729D01*
X9668333Y-10735729D02*
X9677857Y-10716681D01*
X9677857Y-10716681D02*
X9687381Y-10707157D01*
X9687381Y-10707157D02*
X9706429Y-10697633D01*
X9944524Y-10764300D02*
X9944524Y-10897633D01*
X9896905Y-10688110D02*
X9849286Y-10830967D01*
X9849286Y-10830967D02*
X9973095Y-10830967D01*
X10030238Y-10697633D02*
X10154048Y-10697633D01*
X10154048Y-10697633D02*
X10087381Y-10773824D01*
X10087381Y-10773824D02*
X10115953Y-10773824D01*
X10115953Y-10773824D02*
X10135000Y-10783348D01*
X10135000Y-10783348D02*
X10144524Y-10792872D01*
X10144524Y-10792872D02*
X10154048Y-10811919D01*
X10154048Y-10811919D02*
X10154048Y-10859538D01*
X10154048Y-10859538D02*
X10144524Y-10878586D01*
X10144524Y-10878586D02*
X10135000Y-10888110D01*
X10135000Y-10888110D02*
X10115953Y-10897633D01*
X10115953Y-10897633D02*
X10058810Y-10897633D01*
X10058810Y-10897633D02*
X10039762Y-10888110D01*
X10039762Y-10888110D02*
X10030238Y-10878586D01*
X10220714Y-10697633D02*
X10344524Y-10697633D01*
X10344524Y-10697633D02*
X10277857Y-10773824D01*
X10277857Y-10773824D02*
X10306429Y-10773824D01*
X10306429Y-10773824D02*
X10325476Y-10783348D01*
X10325476Y-10783348D02*
X10335000Y-10792872D01*
X10335000Y-10792872D02*
X10344524Y-10811919D01*
X10344524Y-10811919D02*
X10344524Y-10859538D01*
X10344524Y-10859538D02*
X10335000Y-10878586D01*
X10335000Y-10878586D02*
X10325476Y-10888110D01*
X10325476Y-10888110D02*
X10306429Y-10897633D01*
X10306429Y-10897633D02*
X10249286Y-10897633D01*
X10249286Y-10897633D02*
X10230238Y-10888110D01*
X10230238Y-10888110D02*
X10220714Y-10878586D01*
X10420714Y-10697633D02*
X10420714Y-10735729D01*
X10496905Y-10697633D02*
X10496905Y-10735729D01*
X10759762Y-10973824D02*
X10750238Y-10964300D01*
X10750238Y-10964300D02*
X10731191Y-10935729D01*
X10731191Y-10935729D02*
X10721667Y-10916681D01*
X10721667Y-10916681D02*
X10712143Y-10888110D01*
X10712143Y-10888110D02*
X10702619Y-10840491D01*
X10702619Y-10840491D02*
X10702619Y-10802395D01*
X10702619Y-10802395D02*
X10712143Y-10754776D01*
X10712143Y-10754776D02*
X10721667Y-10726205D01*
X10721667Y-10726205D02*
X10731191Y-10707157D01*
X10731191Y-10707157D02*
X10750238Y-10678586D01*
X10750238Y-10678586D02*
X10759762Y-10669062D01*
X10816905Y-10697633D02*
X10940714Y-10697633D01*
X10940714Y-10697633D02*
X10874048Y-10773824D01*
X10874048Y-10773824D02*
X10902619Y-10773824D01*
X10902619Y-10773824D02*
X10921667Y-10783348D01*
X10921667Y-10783348D02*
X10931191Y-10792872D01*
X10931191Y-10792872D02*
X10940714Y-10811919D01*
X10940714Y-10811919D02*
X10940714Y-10859538D01*
X10940714Y-10859538D02*
X10931191Y-10878586D01*
X10931191Y-10878586D02*
X10921667Y-10888110D01*
X10921667Y-10888110D02*
X10902619Y-10897633D01*
X10902619Y-10897633D02*
X10845476Y-10897633D01*
X10845476Y-10897633D02*
X10826429Y-10888110D01*
X10826429Y-10888110D02*
X10816905Y-10878586D01*
X11016905Y-10716681D02*
X11026429Y-10707157D01*
X11026429Y-10707157D02*
X11045476Y-10697633D01*
X11045476Y-10697633D02*
X11093095Y-10697633D01*
X11093095Y-10697633D02*
X11112143Y-10707157D01*
X11112143Y-10707157D02*
X11121667Y-10716681D01*
X11121667Y-10716681D02*
X11131191Y-10735729D01*
X11131191Y-10735729D02*
X11131191Y-10754776D01*
X11131191Y-10754776D02*
X11121667Y-10783348D01*
X11121667Y-10783348D02*
X11007381Y-10897633D01*
X11007381Y-10897633D02*
X11131191Y-10897633D01*
X11336905Y-10897633D02*
X11336905Y-10697633D01*
X11422619Y-10897633D02*
X11422619Y-10792872D01*
X11422619Y-10792872D02*
X11413095Y-10773824D01*
X11413095Y-10773824D02*
X11394048Y-10764300D01*
X11394048Y-10764300D02*
X11365476Y-10764300D01*
X11365476Y-10764300D02*
X11346429Y-10773824D01*
X11346429Y-10773824D02*
X11336905Y-10783348D01*
X11546429Y-10897633D02*
X11527381Y-10888110D01*
X11527381Y-10888110D02*
X11517857Y-10878586D01*
X11517857Y-10878586D02*
X11508333Y-10859538D01*
X11508333Y-10859538D02*
X11508333Y-10802395D01*
X11508333Y-10802395D02*
X11517857Y-10783348D01*
X11517857Y-10783348D02*
X11527381Y-10773824D01*
X11527381Y-10773824D02*
X11546429Y-10764300D01*
X11546429Y-10764300D02*
X11575000Y-10764300D01*
X11575000Y-10764300D02*
X11594048Y-10773824D01*
X11594048Y-10773824D02*
X11603572Y-10783348D01*
X11603572Y-10783348D02*
X11613095Y-10802395D01*
X11613095Y-10802395D02*
X11613095Y-10859538D01*
X11613095Y-10859538D02*
X11603572Y-10878586D01*
X11603572Y-10878586D02*
X11594048Y-10888110D01*
X11594048Y-10888110D02*
X11575000Y-10897633D01*
X11575000Y-10897633D02*
X11546429Y-10897633D01*
X11727381Y-10897633D02*
X11708333Y-10888110D01*
X11708333Y-10888110D02*
X11698810Y-10869062D01*
X11698810Y-10869062D02*
X11698810Y-10697633D01*
X11879762Y-10888110D02*
X11860714Y-10897633D01*
X11860714Y-10897633D02*
X11822619Y-10897633D01*
X11822619Y-10897633D02*
X11803572Y-10888110D01*
X11803572Y-10888110D02*
X11794048Y-10869062D01*
X11794048Y-10869062D02*
X11794048Y-10792872D01*
X11794048Y-10792872D02*
X11803572Y-10773824D01*
X11803572Y-10773824D02*
X11822619Y-10764300D01*
X11822619Y-10764300D02*
X11860714Y-10764300D01*
X11860714Y-10764300D02*
X11879762Y-10773824D01*
X11879762Y-10773824D02*
X11889286Y-10792872D01*
X11889286Y-10792872D02*
X11889286Y-10811919D01*
X11889286Y-10811919D02*
X11794048Y-10830967D01*
X11965476Y-10888110D02*
X11984524Y-10897633D01*
X11984524Y-10897633D02*
X12022619Y-10897633D01*
X12022619Y-10897633D02*
X12041667Y-10888110D01*
X12041667Y-10888110D02*
X12051191Y-10869062D01*
X12051191Y-10869062D02*
X12051191Y-10859538D01*
X12051191Y-10859538D02*
X12041667Y-10840491D01*
X12041667Y-10840491D02*
X12022619Y-10830967D01*
X12022619Y-10830967D02*
X11994048Y-10830967D01*
X11994048Y-10830967D02*
X11975000Y-10821443D01*
X11975000Y-10821443D02*
X11965476Y-10802395D01*
X11965476Y-10802395D02*
X11965476Y-10792872D01*
X11965476Y-10792872D02*
X11975000Y-10773824D01*
X11975000Y-10773824D02*
X11994048Y-10764300D01*
X11994048Y-10764300D02*
X12022619Y-10764300D01*
X12022619Y-10764300D02*
X12041667Y-10773824D01*
X12117857Y-10973824D02*
X12127381Y-10964300D01*
X12127381Y-10964300D02*
X12146429Y-10935729D01*
X12146429Y-10935729D02*
X12155953Y-10916681D01*
X12155953Y-10916681D02*
X12165476Y-10888110D01*
X12165476Y-10888110D02*
X12175000Y-10840491D01*
X12175000Y-10840491D02*
X12175000Y-10802395D01*
X12175000Y-10802395D02*
X12165476Y-10754776D01*
X12165476Y-10754776D02*
X12155953Y-10726205D01*
X12155953Y-10726205D02*
X12146429Y-10707157D01*
X12146429Y-10707157D02*
X12127381Y-10678586D01*
X12127381Y-10678586D02*
X12117857Y-10669062D01*
X7195000Y-11188157D02*
X7295000Y-11088157D01*
X7195000Y-10988157D01*
X7095000Y-11088157D01*
X7195000Y-11188157D01*
X7523571Y-10961633D02*
X7647381Y-10961633D01*
X7647381Y-10961633D02*
X7580714Y-11037824D01*
X7580714Y-11037824D02*
X7609286Y-11037824D01*
X7609286Y-11037824D02*
X7628333Y-11047348D01*
X7628333Y-11047348D02*
X7637857Y-11056872D01*
X7637857Y-11056872D02*
X7647381Y-11075919D01*
X7647381Y-11075919D02*
X7647381Y-11123538D01*
X7647381Y-11123538D02*
X7637857Y-11142586D01*
X7637857Y-11142586D02*
X7628333Y-11152110D01*
X7628333Y-11152110D02*
X7609286Y-11161633D01*
X7609286Y-11161633D02*
X7552143Y-11161633D01*
X7552143Y-11161633D02*
X7533095Y-11152110D01*
X7533095Y-11152110D02*
X7523571Y-11142586D01*
X7733095Y-11142586D02*
X7742619Y-11152110D01*
X7742619Y-11152110D02*
X7733095Y-11161633D01*
X7733095Y-11161633D02*
X7723571Y-11152110D01*
X7723571Y-11152110D02*
X7733095Y-11142586D01*
X7733095Y-11142586D02*
X7733095Y-11161633D01*
X7818809Y-10980681D02*
X7828333Y-10971157D01*
X7828333Y-10971157D02*
X7847381Y-10961633D01*
X7847381Y-10961633D02*
X7895000Y-10961633D01*
X7895000Y-10961633D02*
X7914048Y-10971157D01*
X7914048Y-10971157D02*
X7923571Y-10980681D01*
X7923571Y-10980681D02*
X7933095Y-10999729D01*
X7933095Y-10999729D02*
X7933095Y-11018776D01*
X7933095Y-11018776D02*
X7923571Y-11047348D01*
X7923571Y-11047348D02*
X7809286Y-11161633D01*
X7809286Y-11161633D02*
X7933095Y-11161633D01*
X8056905Y-10961633D02*
X8075952Y-10961633D01*
X8075952Y-10961633D02*
X8095000Y-10971157D01*
X8095000Y-10971157D02*
X8104524Y-10980681D01*
X8104524Y-10980681D02*
X8114048Y-10999729D01*
X8114048Y-10999729D02*
X8123571Y-11037824D01*
X8123571Y-11037824D02*
X8123571Y-11085443D01*
X8123571Y-11085443D02*
X8114048Y-11123538D01*
X8114048Y-11123538D02*
X8104524Y-11142586D01*
X8104524Y-11142586D02*
X8095000Y-11152110D01*
X8095000Y-11152110D02*
X8075952Y-11161633D01*
X8075952Y-11161633D02*
X8056905Y-11161633D01*
X8056905Y-11161633D02*
X8037857Y-11152110D01*
X8037857Y-11152110D02*
X8028333Y-11142586D01*
X8028333Y-11142586D02*
X8018809Y-11123538D01*
X8018809Y-11123538D02*
X8009286Y-11085443D01*
X8009286Y-11085443D02*
X8009286Y-11037824D01*
X8009286Y-11037824D02*
X8018809Y-10999729D01*
X8018809Y-10999729D02*
X8028333Y-10980681D01*
X8028333Y-10980681D02*
X8037857Y-10971157D01*
X8037857Y-10971157D02*
X8056905Y-10961633D01*
X8247381Y-10961633D02*
X8266429Y-10961633D01*
X8266429Y-10961633D02*
X8285476Y-10971157D01*
X8285476Y-10971157D02*
X8295000Y-10980681D01*
X8295000Y-10980681D02*
X8304524Y-10999729D01*
X8304524Y-10999729D02*
X8314048Y-11037824D01*
X8314048Y-11037824D02*
X8314048Y-11085443D01*
X8314048Y-11085443D02*
X8304524Y-11123538D01*
X8304524Y-11123538D02*
X8295000Y-11142586D01*
X8295000Y-11142586D02*
X8285476Y-11152110D01*
X8285476Y-11152110D02*
X8266429Y-11161633D01*
X8266429Y-11161633D02*
X8247381Y-11161633D01*
X8247381Y-11161633D02*
X8228333Y-11152110D01*
X8228333Y-11152110D02*
X8218809Y-11142586D01*
X8218809Y-11142586D02*
X8209286Y-11123538D01*
X8209286Y-11123538D02*
X8199762Y-11085443D01*
X8199762Y-11085443D02*
X8199762Y-11037824D01*
X8199762Y-11037824D02*
X8209286Y-10999729D01*
X8209286Y-10999729D02*
X8218809Y-10980681D01*
X8218809Y-10980681D02*
X8228333Y-10971157D01*
X8228333Y-10971157D02*
X8247381Y-10961633D01*
X8399762Y-11161633D02*
X8399762Y-11028300D01*
X8399762Y-11047348D02*
X8409286Y-11037824D01*
X8409286Y-11037824D02*
X8428333Y-11028300D01*
X8428333Y-11028300D02*
X8456905Y-11028300D01*
X8456905Y-11028300D02*
X8475952Y-11037824D01*
X8475952Y-11037824D02*
X8485476Y-11056872D01*
X8485476Y-11056872D02*
X8485476Y-11161633D01*
X8485476Y-11056872D02*
X8495000Y-11037824D01*
X8495000Y-11037824D02*
X8514048Y-11028300D01*
X8514048Y-11028300D02*
X8542619Y-11028300D01*
X8542619Y-11028300D02*
X8561667Y-11037824D01*
X8561667Y-11037824D02*
X8571191Y-11056872D01*
X8571191Y-11056872D02*
X8571191Y-11161633D01*
X8666429Y-11161633D02*
X8666429Y-11028300D01*
X8666429Y-11047348D02*
X8675952Y-11037824D01*
X8675952Y-11037824D02*
X8695000Y-11028300D01*
X8695000Y-11028300D02*
X8723572Y-11028300D01*
X8723572Y-11028300D02*
X8742619Y-11037824D01*
X8742619Y-11037824D02*
X8752143Y-11056872D01*
X8752143Y-11056872D02*
X8752143Y-11161633D01*
X8752143Y-11056872D02*
X8761667Y-11037824D01*
X8761667Y-11037824D02*
X8780714Y-11028300D01*
X8780714Y-11028300D02*
X8809286Y-11028300D01*
X8809286Y-11028300D02*
X8828333Y-11037824D01*
X8828333Y-11037824D02*
X8837857Y-11056872D01*
X8837857Y-11056872D02*
X8837857Y-11161633D01*
X9195952Y-10952110D02*
X9024524Y-11209252D01*
X9420714Y-10961633D02*
X9439762Y-10961633D01*
X9439762Y-10961633D02*
X9458810Y-10971157D01*
X9458810Y-10971157D02*
X9468333Y-10980681D01*
X9468333Y-10980681D02*
X9477857Y-10999729D01*
X9477857Y-10999729D02*
X9487381Y-11037824D01*
X9487381Y-11037824D02*
X9487381Y-11085443D01*
X9487381Y-11085443D02*
X9477857Y-11123538D01*
X9477857Y-11123538D02*
X9468333Y-11142586D01*
X9468333Y-11142586D02*
X9458810Y-11152110D01*
X9458810Y-11152110D02*
X9439762Y-11161633D01*
X9439762Y-11161633D02*
X9420714Y-11161633D01*
X9420714Y-11161633D02*
X9401667Y-11152110D01*
X9401667Y-11152110D02*
X9392143Y-11142586D01*
X9392143Y-11142586D02*
X9382619Y-11123538D01*
X9382619Y-11123538D02*
X9373095Y-11085443D01*
X9373095Y-11085443D02*
X9373095Y-11037824D01*
X9373095Y-11037824D02*
X9382619Y-10999729D01*
X9382619Y-10999729D02*
X9392143Y-10980681D01*
X9392143Y-10980681D02*
X9401667Y-10971157D01*
X9401667Y-10971157D02*
X9420714Y-10961633D01*
X9573095Y-11142586D02*
X9582619Y-11152110D01*
X9582619Y-11152110D02*
X9573095Y-11161633D01*
X9573095Y-11161633D02*
X9563572Y-11152110D01*
X9563572Y-11152110D02*
X9573095Y-11142586D01*
X9573095Y-11142586D02*
X9573095Y-11161633D01*
X9773095Y-11161633D02*
X9658810Y-11161633D01*
X9715952Y-11161633D02*
X9715952Y-10961633D01*
X9715952Y-10961633D02*
X9696905Y-10990205D01*
X9696905Y-10990205D02*
X9677857Y-11009253D01*
X9677857Y-11009253D02*
X9658810Y-11018776D01*
X9849286Y-10980681D02*
X9858810Y-10971157D01*
X9858810Y-10971157D02*
X9877857Y-10961633D01*
X9877857Y-10961633D02*
X9925476Y-10961633D01*
X9925476Y-10961633D02*
X9944524Y-10971157D01*
X9944524Y-10971157D02*
X9954048Y-10980681D01*
X9954048Y-10980681D02*
X9963572Y-10999729D01*
X9963572Y-10999729D02*
X9963572Y-11018776D01*
X9963572Y-11018776D02*
X9954048Y-11047348D01*
X9954048Y-11047348D02*
X9839762Y-11161633D01*
X9839762Y-11161633D02*
X9963572Y-11161633D01*
X10135000Y-10961633D02*
X10096905Y-10961633D01*
X10096905Y-10961633D02*
X10077857Y-10971157D01*
X10077857Y-10971157D02*
X10068333Y-10980681D01*
X10068333Y-10980681D02*
X10049286Y-11009253D01*
X10049286Y-11009253D02*
X10039762Y-11047348D01*
X10039762Y-11047348D02*
X10039762Y-11123538D01*
X10039762Y-11123538D02*
X10049286Y-11142586D01*
X10049286Y-11142586D02*
X10058810Y-11152110D01*
X10058810Y-11152110D02*
X10077857Y-11161633D01*
X10077857Y-11161633D02*
X10115953Y-11161633D01*
X10115953Y-11161633D02*
X10135000Y-11152110D01*
X10135000Y-11152110D02*
X10144524Y-11142586D01*
X10144524Y-11142586D02*
X10154048Y-11123538D01*
X10154048Y-11123538D02*
X10154048Y-11075919D01*
X10154048Y-11075919D02*
X10144524Y-11056872D01*
X10144524Y-11056872D02*
X10135000Y-11047348D01*
X10135000Y-11047348D02*
X10115953Y-11037824D01*
X10115953Y-11037824D02*
X10077857Y-11037824D01*
X10077857Y-11037824D02*
X10058810Y-11047348D01*
X10058810Y-11047348D02*
X10049286Y-11056872D01*
X10049286Y-11056872D02*
X10039762Y-11075919D01*
X10277857Y-10961633D02*
X10296905Y-10961633D01*
X10296905Y-10961633D02*
X10315953Y-10971157D01*
X10315953Y-10971157D02*
X10325476Y-10980681D01*
X10325476Y-10980681D02*
X10335000Y-10999729D01*
X10335000Y-10999729D02*
X10344524Y-11037824D01*
X10344524Y-11037824D02*
X10344524Y-11085443D01*
X10344524Y-11085443D02*
X10335000Y-11123538D01*
X10335000Y-11123538D02*
X10325476Y-11142586D01*
X10325476Y-11142586D02*
X10315953Y-11152110D01*
X10315953Y-11152110D02*
X10296905Y-11161633D01*
X10296905Y-11161633D02*
X10277857Y-11161633D01*
X10277857Y-11161633D02*
X10258810Y-11152110D01*
X10258810Y-11152110D02*
X10249286Y-11142586D01*
X10249286Y-11142586D02*
X10239762Y-11123538D01*
X10239762Y-11123538D02*
X10230238Y-11085443D01*
X10230238Y-11085443D02*
X10230238Y-11037824D01*
X10230238Y-11037824D02*
X10239762Y-10999729D01*
X10239762Y-10999729D02*
X10249286Y-10980681D01*
X10249286Y-10980681D02*
X10258810Y-10971157D01*
X10258810Y-10971157D02*
X10277857Y-10961633D01*
X10420714Y-10961633D02*
X10420714Y-10999729D01*
X10496905Y-10961633D02*
X10496905Y-10999729D01*
X10759762Y-11237824D02*
X10750238Y-11228300D01*
X10750238Y-11228300D02*
X10731191Y-11199729D01*
X10731191Y-11199729D02*
X10721667Y-11180681D01*
X10721667Y-11180681D02*
X10712143Y-11152110D01*
X10712143Y-11152110D02*
X10702619Y-11104491D01*
X10702619Y-11104491D02*
X10702619Y-11066395D01*
X10702619Y-11066395D02*
X10712143Y-11018776D01*
X10712143Y-11018776D02*
X10721667Y-10990205D01*
X10721667Y-10990205D02*
X10731191Y-10971157D01*
X10731191Y-10971157D02*
X10750238Y-10942586D01*
X10750238Y-10942586D02*
X10759762Y-10933062D01*
X10921667Y-11028300D02*
X10921667Y-11161633D01*
X10874048Y-10952110D02*
X10826429Y-11094967D01*
X10826429Y-11094967D02*
X10950238Y-11094967D01*
X11146429Y-11161633D02*
X11146429Y-10961633D01*
X11232143Y-11161633D02*
X11232143Y-11056872D01*
X11232143Y-11056872D02*
X11222619Y-11037824D01*
X11222619Y-11037824D02*
X11203572Y-11028300D01*
X11203572Y-11028300D02*
X11175000Y-11028300D01*
X11175000Y-11028300D02*
X11155953Y-11037824D01*
X11155953Y-11037824D02*
X11146429Y-11047348D01*
X11355952Y-11161633D02*
X11336905Y-11152110D01*
X11336905Y-11152110D02*
X11327381Y-11142586D01*
X11327381Y-11142586D02*
X11317857Y-11123538D01*
X11317857Y-11123538D02*
X11317857Y-11066395D01*
X11317857Y-11066395D02*
X11327381Y-11047348D01*
X11327381Y-11047348D02*
X11336905Y-11037824D01*
X11336905Y-11037824D02*
X11355952Y-11028300D01*
X11355952Y-11028300D02*
X11384524Y-11028300D01*
X11384524Y-11028300D02*
X11403572Y-11037824D01*
X11403572Y-11037824D02*
X11413095Y-11047348D01*
X11413095Y-11047348D02*
X11422619Y-11066395D01*
X11422619Y-11066395D02*
X11422619Y-11123538D01*
X11422619Y-11123538D02*
X11413095Y-11142586D01*
X11413095Y-11142586D02*
X11403572Y-11152110D01*
X11403572Y-11152110D02*
X11384524Y-11161633D01*
X11384524Y-11161633D02*
X11355952Y-11161633D01*
X11536905Y-11161633D02*
X11517857Y-11152110D01*
X11517857Y-11152110D02*
X11508333Y-11133062D01*
X11508333Y-11133062D02*
X11508333Y-10961633D01*
X11689286Y-11152110D02*
X11670238Y-11161633D01*
X11670238Y-11161633D02*
X11632143Y-11161633D01*
X11632143Y-11161633D02*
X11613095Y-11152110D01*
X11613095Y-11152110D02*
X11603572Y-11133062D01*
X11603572Y-11133062D02*
X11603572Y-11056872D01*
X11603572Y-11056872D02*
X11613095Y-11037824D01*
X11613095Y-11037824D02*
X11632143Y-11028300D01*
X11632143Y-11028300D02*
X11670238Y-11028300D01*
X11670238Y-11028300D02*
X11689286Y-11037824D01*
X11689286Y-11037824D02*
X11698810Y-11056872D01*
X11698810Y-11056872D02*
X11698810Y-11075919D01*
X11698810Y-11075919D02*
X11603572Y-11094967D01*
X11775000Y-11152110D02*
X11794048Y-11161633D01*
X11794048Y-11161633D02*
X11832143Y-11161633D01*
X11832143Y-11161633D02*
X11851191Y-11152110D01*
X11851191Y-11152110D02*
X11860714Y-11133062D01*
X11860714Y-11133062D02*
X11860714Y-11123538D01*
X11860714Y-11123538D02*
X11851191Y-11104491D01*
X11851191Y-11104491D02*
X11832143Y-11094967D01*
X11832143Y-11094967D02*
X11803572Y-11094967D01*
X11803572Y-11094967D02*
X11784524Y-11085443D01*
X11784524Y-11085443D02*
X11775000Y-11066395D01*
X11775000Y-11066395D02*
X11775000Y-11056872D01*
X11775000Y-11056872D02*
X11784524Y-11037824D01*
X11784524Y-11037824D02*
X11803572Y-11028300D01*
X11803572Y-11028300D02*
X11832143Y-11028300D01*
X11832143Y-11028300D02*
X11851191Y-11037824D01*
X11927381Y-11237824D02*
X11936905Y-11228300D01*
X11936905Y-11228300D02*
X11955953Y-11199729D01*
X11955953Y-11199729D02*
X11965476Y-11180681D01*
X11965476Y-11180681D02*
X11975000Y-11152110D01*
X11975000Y-11152110D02*
X11984524Y-11104491D01*
X11984524Y-11104491D02*
X11984524Y-11066395D01*
X11984524Y-11066395D02*
X11975000Y-11018776D01*
X11975000Y-11018776D02*
X11965476Y-10990205D01*
X11965476Y-10990205D02*
X11955953Y-10971157D01*
X11955953Y-10971157D02*
X11936905Y-10942586D01*
X11936905Y-10942586D02*
X11927381Y-10933062D01*
M02*
